<svg preserveAspectRatio="none" width="100%" height="100%" overflow="visible" style="display: block;" viewBox="0 0 20.5 14.5" fill="none" xmlns="http://www.w3.org/2000/svg">
<g id="Vector">
<path d="M20.25 13.5C20.25 13.9142 19.9142 14.25 19.5 14.25H1C0.585787 14.25 0.25 13.9142 0.25 13.5C0.25 13.0858 0.585786 12.75 1 12.75H19.5C19.9142 12.75 20.25 13.0858 20.25 13.5Z" fill="var(--fill-0, #1D1D1D)"/>
<path d="M20.25 7.25C20.25 7.66421 19.9142 8 19.5 8H1C0.585787 8 0.25 7.66421 0.25 7.25C0.25 6.83579 0.585786 6.5 1 6.5H19.5C19.9142 6.5 20.25 6.83579 20.25 7.25Z" fill="var(--fill-0, #1D1D1D)"/>
<path d="M20.25 1C20.25 1.41421 19.9142 1.75 19.5 1.75H1C0.585787 1.75 0.25 1.41421 0.25 1C0.25 0.585786 0.585786 0.25 1 0.25H19.5C19.9142 0.25 20.25 0.585786 20.25 1Z" fill="var(--fill-0, #1D1D1D)"/>
<path d="M20.25 13.5C20.25 13.9142 19.9142 14.25 19.5 14.25H1C0.585787 14.25 0.25 13.9142 0.25 13.5C0.25 13.0858 0.585786 12.75 1 12.75H19.5C19.9142 12.75 20.25 13.0858 20.25 13.5Z" stroke="var(--stroke-0, #1D1D1D)" stroke-width="0.5"/>
<path d="M20.25 7.25C20.25 7.66421 19.9142 8 19.5 8H1C0.585787 8 0.25 7.66421 0.25 7.25C0.25 6.83579 0.585786 6.5 1 6.5H19.5C19.9142 6.5 20.25 6.83579 20.25 7.25Z" stroke="var(--stroke-0, #1D1D1D)" stroke-width="0.5"/>
<path d="M20.25 1C20.25 1.41421 19.9142 1.75 19.5 1.75H1C0.585787 1.75 0.25 1.41421 0.25 1C0.25 0.585786 0.585786 0.25 1 0.25H19.5C19.9142 0.25 20.25 0.585786 20.25 1Z" stroke="var(--stroke-0, #1D1D1D)" stroke-width="0.5"/>
</g>
</svg>
