<svg preserveAspectRatio="none" width="100%" height="100%" overflow="visible" style="display: block;" viewBox="0 0 156.694 153.593" fill="none" xmlns="http://www.w3.org/2000/svg">
<g id="Group 2147235899">
<path id="Vector" d="M53.0368 0.0243416C54.2641 -0.208143 54.973 1.27858 55.5945 2.18835C54.5906 2.54068 51.2068 3.60424 51.2581 4.90012C51.6698 5.16966 52.2856 5.3551 52.7713 5.41773C63.1757 6.75755 73.5277 8.73088 83.3961 12.3677C86.0204 13.335 88.8691 15.009 91.5519 15.6402C92.8754 15.1778 95.5246 14.5499 95.3683 12.9087C94.6491 11.7414 93.3594 11.3479 92.0999 10.7686C93.4666 9.14601 96.3661 6.09895 97.9511 4.72846C100.66 5.6384 105.479 7.66027 108.005 8.90221C115.954 12.8104 117.335 11.4102 124.486 6.87166C126.044 5.89138 127.639 4.97505 129.27 4.12479C134.662 1.37514 144.146 -0.898384 149.102 3.22355C152.983 6.45211 150.43 17.2863 149.068 21.6507C148.043 24.9297 143.976 33.3569 144.361 36.4048C144.766 39.6002 148.775 45.5681 149.353 49.2144C151.598 57.153 152.137 63.0897 152.552 71.1398C150.886 69.6987 148.811 67.9263 146.942 66.7639C146.368 66.7639 146.312 66.7442 145.792 66.9524C146.361 67.7214 148.274 69.0592 149.089 69.7462C152.35 72.4842 156.014 76.0666 156.536 80.5162C157.824 91.5289 151.175 101.94 139.697 103.352C128.563 104.719 122.834 100.504 122.901 88.9811C122.904 88.5548 122.743 88.1991 122.409 87.9499C121.586 88.3565 121.738 90.2206 121.779 90.9846C122.011 95.2343 123.67 100.443 127.517 102.753C131.418 105.096 138.016 104.947 142.384 103.957C137.616 111.603 128.498 119.247 120.374 123.087C117.51 124.524 114.977 125.705 111.956 126.862C108.259 128.277 102.588 129.391 99.4025 131.52C92.7882 135.94 97.1717 145.883 91.4227 150.64C88.24 153.275 82.1436 153.97 78.1198 153.415C72.5155 152.596 67.7462 150.852 66.3307 144.728C65.4924 141.102 65.1832 135.086 62.7403 132.16C60.1359 129.04 54.4319 127.946 50.6742 126.625C43.2167 124.003 35.8966 121.017 29.2906 116.596C28.2715 115.914 26.9373 114.536 25.7884 114.417L25.553 114.64L25.6077 115.118C26.559 116.532 33.5635 120.503 35.3546 121.406C36.7237 122.096 39.2594 123.142 40.5472 123.983L40.6887 124.077C37.9678 129.223 35.66 132.155 29.4924 132.827C25.1443 133.301 18.9152 132.825 15.3463 130.209C9.99861 126.285 14.6389 118.863 15.0704 113.726C15.5011 110.349 15.8739 106.722 13.7993 103.745C6.75219 93.6341 2.16454 84.6593 0.548865 72.2071C-1.56257 55.9348 2.41799 36.9704 12.4886 23.7575C22.311 10.769 36.9025 2.22836 53.0368 0.0243416Z" fill="var(--fill-0, #21612C)"/>
<path id="Vector_2" d="M85.1072 19.3772C94.02 18.8197 99.5646 22.9776 104.182 30.1915C104.512 30.7046 104.683 31.1457 104.517 31.731L104.124 31.8884C103.718 31.5834 102.716 30.0521 102.39 29.5685C97.1422 21.8184 90.5644 18.9066 81.2698 21.2184C74.7889 23.2317 71.0887 28.2322 68.4713 34.269C68.0986 35.1281 67.6345 37.0791 67.0322 37.507L66.7459 37.4415L66.5484 37.1037C66.4133 34.5428 70.1388 28.2978 72.0117 26.1763C75.5791 22.1365 79.7225 19.769 85.1072 19.3772Z" fill="var(--fill-0, #C9FF98)"/>
<path id="Vector_3" d="M145.56 4.75896C146.176 4.65895 146.304 4.63714 146.738 4.92291C146.712 5.14835 146.72 5.37854 146.42 5.46051C137.167 7.99243 132.738 15.2142 127.688 22.9364C128.631 23.2086 129.742 23.3725 130.734 23.6332C133.28 24.3169 135.684 25.4465 137.835 26.9729C139.181 27.9107 142.004 30.0897 142.302 31.7538C142.143 31.7521 141.95 31.7505 141.723 31.7488C140.184 30.7422 138.6 29.0322 137.058 27.9091C133.28 25.158 130.654 24.5726 126.186 23.9054C127.383 21.8707 128.5 19.3098 129.806 17.4948C133.682 12.1122 138.802 6.07271 145.56 4.75896Z" fill="var(--fill-0, #C9FF98)"/>
<path id="Vector_4" d="M146.962 72.1523C148.203 72.0555 151.838 71.6588 151.981 73.5081C151.574 73.6754 149.463 73.0605 148.677 73.0786C141.739 73.2425 136.55 79.5514 134.558 85.7177C133.857 87.8917 133.701 90.0362 133.632 92.3578C133.635 93.494 134.139 96.1189 133.929 96.673L133.585 96.6304C133.017 96.1385 132.907 95.4581 132.786 94.7449C131.202 85.4619 137.186 73.8147 146.962 72.1523Z" fill="var(--fill-0, #C9FF98)"/>
<path id="Vector_5" d="M100.22 33.4993L100.754 33.7681C100.88 33.9665 101.07 34.1879 100.787 34.4158C99.8699 35.1535 98.8965 35.788 97.9894 36.5471C96.8223 37.5259 95.7157 38.5752 94.6761 39.6885C89.6316 45.1022 87.3893 50.7274 86.0576 57.8954L85.4848 57.8003C85.2129 57.4954 85.1014 57.3593 85.1818 56.9019C87.0671 46.1761 91.7428 39.8541 100.22 33.4993Z" fill="var(--fill-0, #C9FF98)"/>
<path id="Vector_6" d="M87.6018 24.3201L88.1661 24.6529C88.4053 25.53 86.5576 27.2253 86.1043 28.1565C83.9429 32.5882 83.172 37.3805 83.0119 42.263C82.9568 43.9419 83.3048 47.7784 82.6522 49.1163L82.4902 49.4475L82.4704 49.6589L82.3112 49.5868C81.7285 47.2997 81.8928 43.7567 81.9761 41.4072C82.1592 36.2443 83.597 27.8959 87.6018 24.3201Z" fill="var(--fill-0, #C9FF98)"/>
<path id="Vector_7" d="M121.238 56.3943C122.614 56.4648 123.386 56.6648 123.943 58.0732C124.301 58.9733 124.255 59.9832 123.816 60.8472C123.396 61.6801 122.999 61.8588 122.158 62.1228C120.691 62.1343 119.666 61.8785 119.083 60.3324C118.787 59.5389 118.843 58.6569 119.237 57.9076C119.722 56.9632 120.314 56.7042 121.238 56.3943Z" fill="var(--fill-0, #C9FF98)"/>
<path id="Vector_8" d="M139.791 48.8088C140.724 48.8138 141.535 48.9941 142.124 49.7384C143.612 51.6173 143.23 53.1175 141.704 54.4931C140.811 54.4636 140.048 54.3176 139.494 53.5913C138.104 51.7764 138.353 50.2254 139.791 48.8088Z" fill="var(--fill-0, #C9FF98)"/>
<path id="Vector_9" d="M66.3777 46.2412C66.6188 46.3019 66.9748 46.3248 67.0777 46.579C67.9865 48.8186 68.6829 51.1221 69.955 53.2108C71.43 55.6324 74.1828 57.0473 76.3178 58.7869C76.5672 58.9902 76.443 59.4361 76.4153 59.7181C72.2349 59.159 65.6157 50.2712 66.3777 46.2412Z" fill="var(--fill-0, #C9FF98)"/>
<path id="Vector_10" d="M142.14 85.8479C144.091 86.0348 143.977 87.7744 143.894 89.404C143.828 90.7025 143.573 91.7158 142.535 92.5847C139.864 91.7863 140.169 87.3661 142.14 85.8479Z" fill="var(--fill-0, #C9FF98)"/>
<path id="Vector_11" d="M140.471 65.6164C140.623 65.6115 140.816 65.6524 140.975 65.677C140.675 66.2443 139.018 66.8099 138.352 67.0018C133.877 68.2822 131.278 70.8497 128.155 74.1403C127.794 73.9468 127.778 73.978 127.588 73.6287C127.812 72.1138 131.216 69.5168 132.455 68.6249C134.99 66.8034 137.346 65.8295 140.471 65.6164Z" fill="var(--fill-0, #C9FF98)"/>
<path id="Vector_12" d="M150.51 82.7088C153.432 82.6842 152.719 87.2536 151.302 88.9194C150.261 89.1948 149.64 88.2881 149.548 87.3585C149.377 85.619 149.518 84.1795 150.51 82.7088Z" fill="var(--fill-0, #C9FF98)"/>
<path id="Vector_13" d="M116.386 13.2112C116.892 13.6834 117.458 15.7967 118.066 16.5919C119.166 18.0281 120.473 19.1151 121.684 20.4628C121.733 21.0481 121.725 20.8579 121.465 21.4531C119.358 20.0431 116.528 17.3116 115.984 14.6868C115.817 13.8817 115.986 13.7916 116.386 13.2112Z" fill="var(--fill-0, #C9FF98)"/>
<path id="Vector_14" d="M134.796 114.548C135.145 114.96 135.794 118.549 136.027 119.324C137.263 123.462 139.982 128.878 134.673 131.435C129.196 134.075 122.31 133.758 116.601 131.96C114.549 131.125 113.082 129.927 112.136 127.907C120.49 124.885 128.201 120.529 134.796 114.548Z" fill="var(--fill-0, #21612C)"/>
<path id="Vector_15" d="M23.9019 8.55869C24.6912 8.4936 25.9122 8.52228 26.7349 8.51573C25.5016 9.66962 22.5142 11.8125 21.0034 13.0602C16.6651 16.6589 12.8937 20.8922 9.81618 25.614L8.65513 27.3208L8.5889 26.4518C7.90837 16.9049 14.2407 9.17482 23.9019 8.55869Z" fill="var(--fill-0, #21612C)"/>
</g>
</svg>
