<svg preserveAspectRatio="none" width="100%" height="100%" overflow="visible" style="display: block;" viewBox="0 0 167.087 143.614" fill="none" xmlns="http://www.w3.org/2000/svg">
<g id="Group 2147235900">
<path id="Vector" d="M0 0L36.6047 6.97979C39.5858 7.52461 42.4985 8.19812 45.5204 8.73491C51.339 9.77486 57.199 10.5676 63.0846 11.1106C76.1054 12.3799 89.1473 13.4218 102.204 14.2355L116.824 15.1251C122.871 15.4481 129.861 14.5947 133.484 20.237C135.819 23.8745 136.97 27.8228 138.908 31.6379C142.056 37.3266 146.169 42.7492 149.48 48.2839C151.848 52.2435 155.065 58.0076 156.505 62.2284C157.876 66.2436 152.381 76.0709 150.358 79.7607C150.701 75.0059 152.133 68.6804 151.532 64.169C151.049 60.5472 148.011 55.4413 146.363 52.1045L136.344 32.2444C134.653 28.938 133.384 25.6666 131.389 22.4094C128.867 18.2917 123.715 17.9266 119.334 17.6907C118.376 17.639 117.53 17.5559 116.619 17.9507C116.483 18.454 116.469 18.2061 116.719 18.7139C117.547 19.0147 118.536 18.9485 119.417 18.9567C122.7 18.987 124.806 18.8472 127.704 20.5593C128.935 21.2948 129.979 22.3056 130.755 23.5126C131.917 25.3108 133.026 27.7929 133.969 29.7366C138.74 39.5731 143.778 49.2648 148.559 59.0974C149.321 60.6651 150.211 62.8855 150.549 64.6149C150.929 69.1807 149.709 73.8864 149.2 78.4038C148.488 84.123 148.297 89.791 146.226 95.2216C145.997 95.8231 145.793 96.2784 145.412 96.8078C144.933 96.7393 138.011 87.9442 137.39 87.0005C138.202 86.9225 140.44 86.8967 140.937 86.213C140.07 85.5372 137.622 85.872 136.529 85.9802L134.213 83.0153C134.197 78.2689 134.495 73.5266 135.107 68.8198C132.136 66.207 126.845 57.8769 126.595 53.5843C126.377 49.8562 128.478 47.0592 128.285 45.1911L128.1 45.0557C125.8 46.5444 125.534 53.6624 125.091 53.9916C122.059 54.25 117.143 49.8547 113.562 48.2675C114.574 45.1517 115.213 42.2068 116.189 39.1267C116.665 37.6265 118.186 36.6823 117.886 35.3787L117.694 35.2616C115.079 36.276 113.871 44.1688 112.876 46.6758C110.964 51.4972 108.507 56.5909 105.343 60.7045C105.047 57.3128 104.871 54.0159 105.501 50.6447C105.737 49.3766 106.426 47.171 105.75 45.9627L105.35 46.0596C103.83 49.9426 104.311 56.1825 104.066 60.2452C103.369 58.7957 102.73 57.4325 102.166 55.9249C101.724 54.7405 101.059 51.7385 99.8519 51.2896C99.3251 52.6778 102.14 58.7185 102.887 60.4074C104.895 64.948 108.475 70.0865 111.753 73.7882C114.407 76.7849 118.475 79.8641 121.255 82.7099C127.122 88.7146 131.865 94.1521 133.471 102.49C130 97.5773 125.419 93.2492 120.19 98.6956C119.036 99.897 118.51 100.779 118.078 102.385C119.411 105.945 120.533 106.466 122.646 109.27C119.649 107.541 116.608 104.429 114.077 102.036C109.955 98.1593 106.069 93.9531 102.109 89.93C100.291 88.0826 97.8387 85.9145 95.9197 84.2492C89.7144 78.8639 81.3716 76.4851 76.959 69.0464C76.3044 67.9426 74.9112 64.2765 74.2245 63.7579C72.6545 65.0541 77.8222 72.3774 79.018 73.6548C79.2384 73.8872 79.4684 74.1104 79.7076 74.3232C77.0668 73.4757 73.8812 72.0224 71.3922 70.903C64.118 67.6313 58.2396 64.4975 53.0219 58.3275C50.7511 55.6421 46.4049 50.4669 43.3121 48.842C37.3942 45.7326 28.9758 44.2102 22.3982 43.035C20.0825 42.6213 11.9075 41.0396 10.0361 41.4489L9.81818 41.6097C10.0646 42.5328 15.4732 43.0054 16.5853 43.2187C24.4885 44.7345 39.4593 46.2881 45.4965 51.7754C29.5229 47.4387 16.2922 48.8658 0 49.6131V0Z" fill="var(--fill-0, #21612C)"/>
<path id="Vector_2" d="M116.752 87.0732C117.081 87.1288 117.096 87.1734 117.382 87.3574L117.429 87.7086C116.811 89.7316 112.814 92.9913 110.904 94.0985C110.464 94.0155 110.607 94.0496 110.234 93.6702C110.303 93.0582 111.875 92.1079 112.468 91.6274C114.2 90.2264 115.43 88.8516 116.752 87.0732Z" fill="var(--fill-0, #C9FF98)"/>
<path id="Vector_3" d="M114.1 84.5073C114.673 84.5693 114.41 84.4706 114.888 84.8749C114.868 85.8435 112.405 86.5236 111.639 87.1288C110.215 88.2545 108.94 89.5376 107.646 90.8064C107.222 90.7297 107.424 90.8064 107.05 90.4954L107.081 90.0914C108.367 87.768 111.873 85.8027 114.1 84.5073Z" fill="var(--fill-0, #C9FF98)"/>
<path id="Vector_4" d="M122.851 40.1816C123.148 40.2366 123.26 40.3281 123.524 40.4779C123.506 40.4151 121.7 45.9397 121.573 47.4495C120.696 47.2547 120.617 46.9968 120.648 46.1215C120.722 44.0196 121.797 41.9313 122.851 40.1816Z" fill="var(--fill-0, #C9FF98)"/>
<path id="Vector_5" d="M140.433 66.8466C141.18 66.855 140.935 66.7451 141.435 67.1734L141.424 67.4957C140.785 68.1174 137.56 68.7713 136.386 69.0969C135.837 69.1815 135.723 69.2492 135.266 69.0021L135.276 68.7022C136.228 67.9307 139.163 67.2114 140.433 66.8466Z" fill="var(--fill-0, #C9FF98)"/>
<path id="Vector_6" d="M127.507 86.2725C128.098 86.4184 134.09 93.6103 134.281 94.4744C135.135 98.3571 136.391 98.7994 139.01 102.102L149.091 114.91C148.576 114.878 148.061 114.85 147.546 114.826C140.35 114.519 133.875 118.59 130.017 124.506C127.708 128.048 126.963 131.106 126.833 135.26C125.787 134.2 123.743 131.496 122.727 130.23C119.908 126.75 117.124 123.243 114.373 119.71C113.28 118.306 111.959 116.517 110.738 115.278C109.509 115.069 109.084 115.053 107.85 115.111C106.541 113.567 102.961 109.241 102.042 107.716C103.917 104.825 104.05 103.093 102.631 100.03C104.088 98.8716 105.36 97.7118 106.715 96.4415C110.459 100.448 114.811 104.235 118.775 108.041C119.718 108.946 120.826 110.866 121.667 111.512C122.51 112.152 123.505 112.56 124.554 112.696C129.139 113.326 134.43 110.589 134.77 105.556C135.25 98.4712 130.856 92.1798 126.692 86.9092L126.744 86.6307L127.507 86.2725Z" fill="var(--fill-0, #2E9D45)"/>
<path id="Vector_7" d="M111.105 104.138C111.158 104.15 111.212 104.16 111.264 104.175C112.035 104.398 123.531 118.755 124.313 120.251C124.527 120.661 124.387 120.893 124.258 121.301C124.128 121.264 123.998 121.226 123.868 121.189C119.675 115.904 115.278 110.696 111.238 105.304C110.844 104.778 111.011 104.527 111.105 104.138Z" fill="var(--fill-0, #C9FF98)"/>
<path id="Vector_8" d="M109.888 108.554C111.247 109.156 117.034 117.676 118.617 119.128C119.082 119.553 120.049 120.928 120.431 121.496C120.661 121.839 120.375 122.325 120.232 122.656C118.361 120.928 111.489 111.947 109.443 109.228C109.37 109.132 109.755 108.723 109.888 108.554Z" fill="var(--fill-0, #C9FF98)"/>
<path id="Vector_9" d="M145.327 115.922C153.502 115.067 159.955 122.577 157.39 130.811C156.894 132.402 147.494 141.47 145.548 143.614C144.368 143.098 143.473 142.744 142.26 142.306C138.077 140.595 132.73 139.099 128.352 137.92C128.281 137.537 128.22 137.153 128.166 136.767C126.777 126.527 135.382 117.166 145.327 115.922Z" fill="var(--fill-0, #2E9D45)"/>
<path id="Vector_10" d="M150.35 121.565C151.168 122.215 151.593 122.618 152.329 123.367C151.966 123.839 151.435 124.36 151.017 124.799C151.206 125.167 151.385 125.54 151.552 125.918C151.789 126.462 152.955 129.969 151.934 130.301C151.229 130.53 149.203 130.247 148.493 129.904C148.225 129.335 148.183 128.247 148.12 127.578C147.162 128.359 146.537 128.951 145.662 129.809C147.001 134.274 146.318 138.45 140.842 138.718C139.676 138.541 138.771 138.215 137.742 137.66C137.151 138.201 136.834 138.413 136.176 138.857C136.032 138.757 135.889 138.655 135.746 138.553C134.929 137.966 134.67 137.886 134.519 136.973C134.676 136.321 135.125 136.023 135.635 135.549C134.335 132.971 134.149 132.178 134.289 129.348C135.646 129.287 136.686 129.347 138.036 129.419C138.043 130.596 138.18 131.569 138.325 132.729C139.369 131.759 140.164 131.028 141.106 129.95C140.642 127.722 140.115 125.888 141.554 123.843C142.486 122.518 143.738 121.941 145.298 121.651C146.94 121.69 147.423 121.847 148.813 122.667C149.278 122.31 149.866 121.912 150.35 121.565Z" fill="var(--fill-0, #C9FF98)"/>
<path id="Vector_11" d="M142.316 130.26C141.5 127.479 140.897 123.578 145.163 122.749C146.544 122.481 147.935 123.397 148.988 124.247C149.187 124.389 149.474 124.571 149.63 124.742C150.324 125.471 151.483 128.041 151.15 128.99C150.505 129.347 150.277 129.39 149.622 129.085C148.901 128.063 149.366 126.506 148.355 126.002C147.58 126.087 145.144 128.705 144.342 129.462C145.875 133.527 146.075 136.532 141.056 137.748C139.419 137.374 138.955 137.115 137.552 136.169C136.668 136.826 136.187 137.16 135.231 137.695C135.841 136.946 136.464 136.208 137.1 135.48C137.003 135.36 136.907 135.239 136.814 135.116C136.119 134.205 134.408 131.539 135.657 130.673C137.814 130.526 136.943 132.318 138.06 134.187L138.171 134.37C139.17 133.577 141.705 131.268 142.316 130.26Z" fill="var(--fill-0, #2E9D45)"/>
<path id="Vector_12" d="M142.524 131.223C144.255 132.093 143.303 136.045 139.781 135.693C139.247 135.28 139.213 135.395 139.053 134.873C139.452 133.615 141.434 132.187 142.524 131.223Z" fill="var(--fill-0, #C9FF98)"/>
<path id="Vector_13" d="M145.99 124.38C146.67 124.43 147.084 124.488 147.473 125.063C147.418 125.953 145.757 127.122 144.977 127.9C144.697 128.261 144.709 128.281 144.298 128.52C144.127 128.438 143.983 128.426 143.936 128.274C143.303 126.22 144.384 125.02 145.99 124.38Z" fill="var(--fill-0, #C9FF98)"/>
<path id="Vector_14" d="M148.985 124.246C149.797 123.558 150.358 123.042 151.306 122.528C150.701 123.424 150.329 123.924 149.626 124.74C149.47 124.57 149.183 124.388 148.985 124.246Z" fill="var(--fill-0, #2E9D45)"/>
<path id="Vector_15" d="M104.81 94.5085C105.348 94.8537 105.497 94.9894 105.615 95.5264C105.074 96.9468 102.734 98.3757 101.54 99.766L101.417 99.9126C103.003 103.149 102.841 104.848 100.516 107.64C102.26 110.421 105.379 113.431 107.152 116.303C108.113 116.267 109.151 116.353 110.118 116.411C111.539 117.91 113.031 119.851 114.308 121.486C118.545 126.91 123.125 132.201 127.255 137.7C126.262 137.443 125.206 137.25 124.196 137.049L121.646 136.49C119.875 134.619 118.429 132.61 116.843 130.615C114.063 127.169 111.318 123.695 108.609 120.194C104.403 114.832 99.2172 108.788 95.2255 103.343C97.5313 100.85 102.17 96.9106 104.81 94.5085Z" fill="var(--fill-0, #2E9D45)"/>
<path id="Vector_16" d="M125.215 73.5449C126.491 75.4091 128.311 77.4144 129.747 79.2319C137.771 89.3875 145.913 99.4608 153.948 109.607C157.3 113.84 161.025 119.993 165.927 122.331C165.476 122.833 164.915 123.577 164.213 123.622C162.684 123.722 160.926 121.727 159.892 120.666C156.347 116.577 152.673 111.594 149.224 107.321C141.061 97.2067 133.093 86.697 124.784 76.7117C123.503 77.7129 121.788 79.3415 120.452 80.4706L119.108 79.1685C120.416 77.636 123.545 75.1479 125.215 73.5449Z" fill="var(--fill-0, #2E9D45)"/>
<path id="Vector_17" d="M126.015 56.8154C126.412 57.282 127.86 60.8515 128.467 61.8075C130.215 64.5574 132.045 66.9867 134.026 69.545C133.332 73.3627 133.053 77.902 133.167 81.7731C131.129 79.0715 127.59 74.4276 125.358 72.0565C124.567 72.6387 123.079 74.058 122.288 74.7763C121.378 75.5988 118.645 78.508 117.536 77.9063L117.441 77.4938C117.931 75.7856 124.042 70.7042 125.715 69.478C127.528 69.4122 129.284 69.6747 131.074 69.5428C131.374 69.5208 131.433 69.2557 131.527 69.0319L131.375 68.7679C130.325 68.2149 127.128 68.3161 125.744 68.2947C124.139 65.1136 123.196 62.9546 122.63 59.4387C123.675 58.5007 124.882 57.6526 126.015 56.8154Z" fill="var(--fill-0, #21612C)"/>
<path id="Vector_18" d="M124.627 78.333C125.367 79.0211 126.429 80.5095 127.108 81.3706C128.292 82.8529 129.484 84.3288 130.684 85.7984L149.154 109.034C153.521 114.469 157.789 121.089 163.468 124.9C162.701 125.737 162.508 125.93 161.582 126.576C161.129 126.399 160.623 126.141 160.178 125.929C159.772 125.687 159.189 125.177 158.806 124.863C158.253 122.376 157.561 120.856 156.081 118.786C154.592 116.704 151.846 116.286 150.436 114.711C148.509 112.558 146.565 109.903 144.759 107.608L135.739 96.2796L135.822 94.6143C134.214 92.1357 130.134 87.2948 128.138 84.6752C127.435 85.0562 126.486 85.401 125.727 85.7015C124.451 84.5424 122.664 82.57 121.421 81.2812C122.538 80.0903 123.382 79.363 124.627 78.333Z" fill="var(--fill-0, #2E9D45)"/>
<path id="Vector_19" d="M124.693 97.1861C128.191 97.1256 132.54 102.056 133.342 105.236C134.097 108.231 131.349 110.639 128.444 111.112C124.435 110.693 120.41 105.757 119.363 102.16C119.489 101.854 119.625 101.552 119.77 101.255C120.774 99.2444 122.585 97.877 124.693 97.1861Z" fill="var(--fill-0, #21612C)"/>
<path id="Vector_20" d="M102.474 92.3411C103.276 92.6259 103.64 93.1282 104.195 93.7543C101.021 96.5243 96.6597 100.229 93.77 103.181C94.4383 104.202 95.7867 105.797 96.5969 106.825C98.3108 109.03 100.044 111.219 101.795 113.394L113.954 128.806C114.673 129.715 119.148 135.21 119.474 135.88L119.301 136.054L118.661 135.966L116.985 135.787C112.368 130.289 108.202 124.699 103.71 119.177C101.003 115.881 98.3339 112.555 95.7041 109.197C94.1841 107.282 92.2665 104.992 90.9421 102.978C94.144 99.6197 98.9541 95.7103 102.474 92.3411Z" fill="var(--fill-0, #2E9D45)"/>
<path id="Vector_21" d="M113.144 49.241C116.539 51.1541 120.12 53.9844 123.745 55.1165C124.096 55.2261 125.677 55.2557 126.14 55.2652C123.969 57.2319 121.872 58.5241 119.236 59.7464C114.999 61.4689 111.909 61.9784 108.171 59.0932C109.831 55.7648 111.474 52.653 113.144 49.241Z" fill="var(--fill-0, #21612C)"/>
<path id="Vector_22" d="M121.448 59.96C121.693 60.3734 122.166 62.5389 122.406 63.2507C123.073 65.166 123.87 67.0335 124.791 68.8403C122.179 70.6957 118.398 74.2483 116.439 76.7651C115.537 75.7051 113.536 74.2322 113.12 73.1916C114.723 67.4037 117.107 69.6825 119.6 68.0422L119.642 67.752L119.372 67.4549C118.285 67.2454 116.335 67.8241 115.188 68.1025C113.935 65.7622 113.389 64.9259 113.003 62.2861C117.002 61.8036 117.758 61.6192 121.448 59.96Z" fill="var(--fill-0, #21612C)"/>
<path id="Vector_23" d="M150.596 103.547C152.588 104.989 154.927 107.283 156.775 108.986C160.033 111.989 166.504 116.674 167.087 121.304C163.085 121.454 156.327 110.34 153.586 107.446C152.947 106.772 151.072 104.359 150.596 103.547Z" fill="var(--fill-0, #2E9D45)"/>
<path id="Vector_24" d="M96.2894 86.1123C97.5195 86.8509 100.614 90.139 101.768 91.3303C100.815 91.8162 99.5393 92.3174 98.5353 92.7432C97.3006 93.282 94.2318 94.9789 93.9517 92.4086C93.6709 89.8296 94.7834 88.0512 96.2894 86.1123Z" fill="var(--fill-0, #21612C)"/>
<path id="Vector_25" d="M158.889 126.553C159.524 126.831 160.203 127.097 160.848 127.359C160.541 127.808 160.136 128.279 159.789 128.705C159.344 129.17 159.467 129.188 158.945 129.309C158.646 128.838 158.851 127.221 158.889 126.553Z" fill="var(--fill-0, #2E9D45)"/>
</g>
</svg>
