<svg preserveAspectRatio="none" width="100%" height="100%" overflow="visible" style="display: block;" viewBox="0 0 14.0121 8.00879" fill="none" xmlns="http://www.w3.org/2000/svg">
<path id="Vector" d="M13.0113 8.00879C12.8797 8.00876 12.7495 7.98278 12.628 7.93233C12.5065 7.88188 12.3961 7.80795 12.3033 7.71479L7.01826 2.41479L1.71826 7.69979C1.62588 7.79516 1.51543 7.87118 1.39335 7.9234C1.27128 7.97563 1.14002 8.00303 1.00725 8.00399C0.87447 8.00495 0.742832 7.97946 0.620012 7.92901C0.497192 7.87855 0.38565 7.80414 0.291894 7.71012C0.198137 7.6161 0.124044 7.50435 0.0739372 7.38139C0.0238302 7.25842 -0.00128699 7.12671 5.0758e-05 6.99394C0.0013885 6.86117 0.0291544 6.72999 0.0817287 6.60806C0.134303 6.48614 0.210633 6.3759 0.306265 6.28379L6.31426 0.292786C6.50179 0.105315 6.7561 0 7.02126 0C7.28643 0 7.54074 0.105315 7.72826 0.292786L13.7203 6.30179C13.8598 6.44175 13.9547 6.61992 13.9931 6.81379C14.0314 7.00767 14.0114 7.20856 13.9357 7.39109C13.8599 7.57363 13.7318 7.72963 13.5674 7.83939C13.4031 7.94914 13.2099 8.00774 13.0123 8.00779L13.0113 8.00879Z" fill="var(--fill-0, #21262A)"/>
</svg>
