<svg preserveAspectRatio="none" width="100%" height="100%" overflow="visible" style="display: block;" viewBox="0 0 6.67487 11.6671" fill="none" xmlns="http://www.w3.org/2000/svg">
<path id="Vector" d="M5.82691 11.6671C5.71728 11.6671 5.60874 11.6455 5.5075 11.6034C5.40625 11.5614 5.3143 11.4998 5.23691 11.4221L0.244406 6.41546C0.166926 6.33807 0.10546 6.24616 0.0635227 6.145C0.0215857 6.04383 0 5.93539 0 5.82588C0 5.71637 0.0215857 5.60793 0.0635227 5.50676C0.10546 5.4056 0.166926 5.31369 0.244406 5.2363L5.25191 0.243797C5.40838 0.0875404 5.62052 -0.000156075 5.84166 2.08525e-07C6.0628 0.000156492 6.27482 0.0881526 6.43107 0.24463C6.58733 0.401108 6.67503 0.61325 6.67487 0.834386C6.67471 1.05552 6.58672 1.26754 6.43024 1.4238L2.01357 5.82796L6.41774 10.2446C6.53401 10.3613 6.61312 10.5097 6.64506 10.6713C6.67701 10.8329 6.66037 11.0003 6.59725 11.1524C6.53412 11.3045 6.42733 11.4345 6.29038 11.526C6.15342 11.6174 5.99243 11.6663 5.82774 11.6663L5.82691 11.6671Z" fill="var(--fill-0, #5D686F)"/>
</svg>
