<svg preserveAspectRatio="none" width="100%" height="100%" overflow="visible" style="display: block;" viewBox="0 0 21.8584 18.0076" fill="none" xmlns="http://www.w3.org/2000/svg">
<g id="Vector">
<path d="M16.2699 4.02308C15.5555 2.49543 14.3121 1.2781 12.7697 0.596142C11.2273 -0.0858158 9.4901 -0.186281 7.87935 0.31332C6.26861 0.812922 4.89321 1.8788 4.00743 3.3139C3.12166 4.74901 2.78542 6.45628 3.06088 8.12008C2.11254 8.34913 1.28061 8.91688 0.721641 9.71648C0.162669 10.5161 -0.0848025 11.4924 0.0257941 12.4617C0.136391 13.431 0.59743 14.3265 1.32215 14.9796C2.04688 15.6328 2.98532 15.9985 3.96088 16.0081H5.96088C6.22609 16.0081 6.48045 15.9027 6.66798 15.7152C6.85552 15.5276 6.96088 15.2733 6.96088 15.0081C6.96088 14.7429 6.85552 14.4885 6.66798 14.301C6.48045 14.1134 6.22609 14.0081 5.96088 14.0081H3.96088C3.6318 14.0085 3.30771 13.9277 3.01734 13.7728C2.72697 13.618 2.4793 13.3939 2.29629 13.1204C2.11327 12.8469 2.00057 12.5325 1.96817 12.205C1.93577 11.8775 1.98468 11.5471 2.11056 11.243C2.23644 10.939 2.43539 10.6707 2.68979 10.462C2.94419 10.2532 3.24616 10.1105 3.56894 10.0464C3.89171 9.98229 4.22532 9.99883 4.54017 10.0945C4.85502 10.1903 5.14139 10.3622 5.37388 10.5951C5.56248 10.7772 5.81508 10.878 6.07728 10.8758C6.33948 10.8735 6.59029 10.7683 6.7757 10.5829C6.9611 10.3975 7.06627 10.1467 7.06855 9.88448C7.07083 9.62228 6.97004 9.36968 6.78788 9.18108C6.32239 8.7214 5.75039 8.38404 5.12288 8.19908C5.01934 7.8104 4.96492 7.41029 4.96088 7.00808C4.9586 5.92988 5.30568 4.87996 5.95014 4.01556C6.59459 3.15116 7.50173 2.5188 8.53571 2.21317C9.56968 1.90755 10.6748 1.94512 11.6857 2.32026C12.6965 2.69539 13.5586 3.3879 14.1429 4.29408C12.975 4.65953 11.9492 5.37821 11.2069 6.35108C11.0563 6.56233 10.9937 6.82384 11.0323 7.08039C11.0709 7.33693 11.2077 7.56843 11.4138 7.72599C11.6199 7.88356 11.8792 7.95486 12.1369 7.92483C12.3946 7.89481 12.6305 7.76581 12.7949 7.56508C13.1661 7.07827 13.6453 6.68427 14.1947 6.41409C14.7441 6.14391 15.3487 6.00493 15.9609 6.00808C17.0217 6.00808 18.0392 6.4295 18.7893 7.17965C19.5394 7.9298 19.9609 8.94721 19.9609 10.0081C19.9609 11.0689 19.5394 12.0864 18.7893 12.8365C18.0392 13.5867 17.0217 14.0081 15.9609 14.0081C15.6957 14.0081 15.4413 14.1134 15.2538 14.301C15.0662 14.4885 14.9609 14.7429 14.9609 15.0081C14.9609 15.2733 15.0662 15.5276 15.2538 15.7152C15.4413 15.9027 15.6957 16.0081 15.9609 16.0081C17.5074 15.9817 18.9841 15.359 20.0826 14.27C21.1811 13.181 21.8166 11.7099 21.8564 10.1636C21.8963 8.61731 21.3374 7.11537 20.2965 5.97123C19.2556 4.82709 17.813 4.12915 16.2699 4.02308Z" fill="var(--fill-0, #205EA3)"/>
<path d="M11.6679 10.3006C11.4803 10.1131 11.226 10.0078 10.9609 10.0078C10.6957 10.0078 10.4414 10.1131 10.2539 10.3006L8.25386 12.3006C8.0717 12.4892 7.9709 12.7418 7.97318 13.004C7.97546 13.2662 8.08063 13.517 8.26604 13.7024C8.45145 13.8878 8.70226 13.993 8.96446 13.9953C9.22665 13.9976 9.47925 13.8968 9.66786 13.7146L9.96086 13.4216V17.0076C9.96086 17.2728 10.0662 17.5272 10.2537 17.7147C10.4413 17.9022 10.6956 18.0076 10.9609 18.0076C11.2261 18.0076 11.4804 17.9022 11.668 17.7147C11.8555 17.5272 11.9609 17.2728 11.9609 17.0076V13.4216L12.2539 13.7146C12.4425 13.8968 12.6951 13.9976 12.9573 13.9953C13.2195 13.993 13.4703 13.8878 13.6557 13.7024C13.8411 13.517 13.9463 13.2662 13.9485 13.004C13.9508 12.7418 13.85 12.4892 13.6679 12.3006L11.6679 10.3006Z" fill="var(--fill-0, #205EA3)"/>
</g>
</svg>
