<svg preserveAspectRatio="none" width="100%" height="100%" overflow="visible" style="display: block;" viewBox="0 0 15.8275 16.6842" fill="none" xmlns="http://www.w3.org/2000/svg">
<g id="Vector">
<path fill-rule="evenodd" clip-rule="evenodd" d="M15.8275 4.19167L15.8217 9.16333C15.8194 9.58439 15.6586 9.98914 15.3711 10.2968C15.0837 10.6045 14.6908 10.7925 14.2708 10.8233L4.86 11.5008L4.875 11.7267C4.88878 11.9382 4.98262 12.1365 5.13743 12.2812C5.29224 12.426 5.49639 12.5063 5.70833 12.5058L14.9825 12.5125C15.2035 12.5125 15.4155 12.6003 15.5718 12.7566C15.728 12.9129 15.8158 13.1248 15.8158 13.3458C15.8158 13.5668 15.728 13.7788 15.5718 13.9351C15.4155 14.0914 15.2035 14.1792 14.9825 14.1792L5.70833 14.165C5.07514 14.1625 4.46633 13.9206 4.00415 13.4878C3.54197 13.055 3.26064 12.4633 3.21667 11.8317L3.14917 10.7892V10.7792L2.60583 2.44583C2.59206 2.23434 2.49822 2.03604 2.3434 1.89129C2.18859 1.74654 1.98444 1.66622 1.7725 1.66667H0.833333C0.61232 1.66667 0.400358 1.57887 0.244078 1.42259C0.0877973 1.26631 0 1.05435 0 0.833333C0 0.61232 0.0877973 0.400358 0.244078 0.244078C0.400358 0.0877973 0.61232 0 0.833333 0H1.77583C2.40952 0.00257296 3.01871 0.24514 3.48072 0.678859C3.94274 1.11258 4.22327 1.70524 4.26583 2.3375L4.27667 2.50417L14.1608 2.525C14.6029 2.525 15.0268 2.70059 15.3393 3.01316C15.6519 3.32572 15.8275 3.74964 15.8275 4.19167ZM4.755 9.84L14.155 9.16333L14.1617 4.1875L4.38667 4.17333L4.755 9.84Z" fill="var(--fill-0, #5D686F)"/>
<path d="M5.2226 15.2489C5.10603 15.3654 5.02664 15.5139 4.99447 15.6755C4.96229 15.8372 4.97878 16.0048 5.04184 16.1571C5.10491 16.3093 5.21172 16.4395 5.34877 16.5311C5.48581 16.6227 5.64694 16.6716 5.81177 16.6716C5.9766 16.6716 6.13772 16.6227 6.27477 16.5311C6.41182 16.4395 6.51863 16.3093 6.58169 16.1571C6.64476 16.0048 6.66125 15.8372 6.62907 15.6755C6.5969 15.5139 6.5175 15.3654 6.40093 15.2489C6.24466 15.0926 6.03274 15.0049 5.81177 15.0049C5.5908 15.0049 5.37887 15.0926 5.2226 15.2489Z" fill="var(--fill-0, #5D686F)"/>
<path d="M13.5559 15.2615C13.4394 15.378 13.36 15.5265 13.3278 15.6882C13.2956 15.8498 13.3121 16.0174 13.3752 16.1697C13.4382 16.322 13.5451 16.4521 13.6821 16.5437C13.8191 16.6353 13.9803 16.6842 14.1451 16.6842C14.3099 16.6842 14.4711 16.6353 14.6081 16.5437C14.7452 16.4521 14.852 16.322 14.915 16.1697C14.9781 16.0174 14.9946 15.8498 14.9624 15.6882C14.9302 15.5265 14.8508 15.378 14.7343 15.2615C14.578 15.1053 14.3661 15.0175 14.1451 15.0175C13.9241 15.0175 13.7122 15.1053 13.5559 15.2615Z" fill="var(--fill-0, #5D686F)"/>
</g>
</svg>
