<svg preserveAspectRatio="none" width="100%" height="100%" overflow="visible" style="display: block;" viewBox="0 0 16.7425 16.78" fill="none" xmlns="http://www.w3.org/2000/svg">
<path id="Vector" d="M16.496 15.3501L12.0043 10.8585C13.0582 9.51301 13.5596 7.81642 13.4063 6.11424C13.253 4.41207 12.4566 2.83235 11.1793 1.69683C9.90198 0.56132 8.23985 -0.0445754 6.53144 0.00255719C4.82303 0.0496897 3.19683 0.746305 1.98408 1.95052C0.77133 3.15473 0.0632399 4.77596 0.00403513 6.48399C-0.0551697 8.19203 0.538964 9.8584 1.66542 11.1437C2.79188 12.429 4.36594 13.2365 6.06699 13.4018C7.76803 13.5672 9.46812 13.0778 10.821 12.0335L15.3127 16.5335C15.3901 16.6116 15.4823 16.6736 15.5838 16.7159C15.6854 16.7582 15.7943 16.78 15.9043 16.78C16.0143 16.78 16.1232 16.7582 16.2248 16.7159C16.3263 16.6736 16.4185 16.6116 16.496 16.5335C16.5741 16.456 16.6361 16.3638 16.6784 16.2623C16.7207 16.1607 16.7425 16.0518 16.7425 15.9418C16.7425 15.8318 16.7207 15.7229 16.6784 15.6213C16.6361 15.5198 16.5741 15.4276 16.496 15.3501V15.3501ZM3.20432 10.3001C2.50561 9.60064 2.02996 8.70971 1.83749 7.73996C1.64501 6.77021 1.74435 5.76516 2.12295 4.85185C2.50155 3.93855 3.14242 3.15798 3.96455 2.60882C4.78667 2.05966 5.75315 1.76656 6.74182 1.76656C7.73049 1.76656 8.69697 2.05966 9.51909 2.60882C10.3412 3.15798 10.9821 3.93855 11.3607 4.85185C11.7393 5.76516 11.8386 6.77021 11.6462 7.73996C11.4537 8.70971 10.978 9.60064 10.2793 10.3001C9.81495 10.765 9.26351 11.1338 8.65652 11.3854C8.04953 11.637 7.39889 11.7666 6.74182 11.7666C6.08474 11.7666 5.43411 11.637 4.82712 11.3854C4.22013 11.1338 3.66868 10.765 3.20432 10.3001V10.3001Z" fill="var(--fill-0, #5D686F)"/>
</svg>
