<svg preserveAspectRatio="none" width="100%" height="100%" overflow="visible" style="display: block;" viewBox="0 0 14.2079 18.3325" fill="none" xmlns="http://www.w3.org/2000/svg">
<path id="Vector" d="M14.0866 13.5575L12.9433 10.6808V7.50833C12.9427 6.10693 12.4382 4.75248 11.5218 3.69225C10.6053 2.63202 9.33817 1.93673 7.95161 1.73333V0.833333C7.95161 0.612319 7.86382 0.400358 7.70754 0.244078C7.55126 0.0877973 7.33929 0 7.11828 0C6.89727 0 6.68531 0.0877973 6.52903 0.244078C6.37275 0.400358 6.28495 0.612319 6.28495 0.833333V1.7325C4.89804 1.93151 3.62898 2.62271 2.70948 3.6799C1.78999 4.73709 1.28141 6.08973 1.27661 7.49083V10.6658L0.119948 13.5367C0.0185085 13.7894 -0.0194605 14.0631 0.00936187 14.3339C0.0381842 14.6047 0.13292 14.8643 0.285282 15.09C0.437644 15.3157 0.64299 15.5006 0.883359 15.6286C1.12373 15.7566 1.3918 15.8237 1.66411 15.8242L4.59995 15.8325C4.59995 16.4955 4.86334 17.1314 5.33218 17.6003C5.80102 18.0691 6.43691 18.3325 7.09995 18.3325H7.10495C7.76799 18.3325 8.40387 18.0691 8.87271 17.6003C9.34155 17.1314 9.60495 16.4955 9.60495 15.8325H12.5416C12.8137 15.8324 13.0816 15.7658 13.3219 15.6384C13.5623 15.5109 13.7678 15.3266 13.9205 15.1015C14.0732 14.8763 14.1685 14.6172 14.198 14.3468C14.2276 14.0764 14.1905 13.8028 14.0899 13.55L14.0866 13.5575ZM7.68828 16.4233C7.53197 16.5788 7.32042 16.666 7.09995 16.6658V16.6658C6.87893 16.6658 6.66697 16.578 6.51069 16.4218C6.35441 16.2655 6.26661 16.0535 6.26661 15.8325H7.93328C7.93374 15.9423 7.9123 16.0511 7.87024 16.1526C7.82817 16.254 7.76632 16.3461 7.68828 16.4233V16.4233ZM1.66661 14.1583L2.88078 11.1358C2.92143 11.0378 2.94265 10.9328 2.94328 10.8267L2.94828 7.49333C2.94982 6.39014 3.38881 5.33259 4.16896 4.55259C4.94911 3.77259 6.00675 3.33382 7.10995 3.3325H7.11661C8.22113 3.33559 9.27934 3.77658 10.0592 4.55876C10.839 5.34095 11.2768 6.40048 11.2766 7.505L11.2716 10.8383C11.2714 10.9445 11.2915 11.0497 11.3308 11.1483L12.5366 14.1733L1.66661 14.1583Z" fill="var(--fill-0, #5D686F)"/>
</svg>
