<svg preserveAspectRatio="none" width="100%" height="100%" overflow="visible" style="display: block;" viewBox="0 0 16.6732 16.6667" fill="none" xmlns="http://www.w3.org/2000/svg">
<g id="Vector">
<path d="M8.34 10.8333C8.17519 10.8333 8.01407 10.8822 7.87703 10.9738C7.73999 11.0654 7.63318 11.1955 7.5701 11.3478C7.50703 11.5 7.49053 11.6676 7.52268 11.8292C7.55484 11.9909 7.6342 12.1394 7.75075 12.2559C7.86729 12.3725 8.01578 12.4518 8.17743 12.484C8.33908 12.5161 8.50663 12.4996 8.65891 12.4366C8.81118 12.3735 8.94133 12.2667 9.03289 12.1296C9.12446 11.9926 9.17334 11.8315 9.17334 11.6667C9.17334 11.4457 9.08554 11.2337 8.92926 11.0774C8.77298 10.9211 8.56102 10.8333 8.34 10.8333Z" fill="var(--fill-0, #5D686F)"/>
<path d="M10.84 6.66667C10.8387 6.00404 10.5749 5.36892 10.1063 4.90037C9.63776 4.43181 9.00264 4.16799 8.34 4.16667C7.78422 4.16849 7.24489 4.35547 6.80724 4.69804C6.36959 5.04062 6.05857 5.51926 5.92334 6.05834C5.89234 6.1656 5.88321 6.278 5.8965 6.38886C5.90979 6.49972 5.94521 6.60678 6.00068 6.70368C6.05615 6.80057 6.13052 6.88534 6.21938 6.95294C6.30825 7.02054 6.40979 7.06959 6.51798 7.09718C6.62616 7.12477 6.73879 7.13034 6.84918 7.11356C6.95956 7.09677 7.06544 7.05798 7.16054 6.99948C7.25564 6.94098 7.33802 6.86396 7.40277 6.77301C7.46753 6.68205 7.51334 6.57901 7.5375 6.47001C7.58384 6.29106 7.68726 6.13209 7.83207 6.0172C7.97688 5.90232 8.1552 5.83777 8.34 5.83334C8.56061 5.83465 8.77181 5.92287 8.92781 6.07887C9.08381 6.23486 9.17202 6.44606 9.17334 6.66667C9.17334 6.67751 9.17917 6.68667 9.17917 6.69751C9.17917 6.70834 9.17334 6.71667 9.17334 6.72751C9.17333 6.80482 9.15182 6.88061 9.1112 6.9464C9.07058 7.01218 9.01246 7.06537 8.94334 7.10001L7.96667 7.58667C7.82817 7.65607 7.71176 7.76271 7.6305 7.8946C7.54925 8.02649 7.50637 8.17843 7.50667 8.33334V9.16667C7.50667 9.38769 7.59447 9.59965 7.75075 9.75593C7.90703 9.91221 8.11899 10 8.34 10C8.56102 10 8.77298 9.91221 8.92926 9.75593C9.08554 9.59965 9.17334 9.38769 9.17334 9.16667V8.84751L9.68917 8.59084C10.0423 8.41255 10.3378 8.13794 10.5415 7.79877C10.7451 7.45959 10.8486 7.0697 10.84 6.67417V6.66667Z" fill="var(--fill-0, #5D686F)"/>
<path d="M14.2417 2.45001C13.471 1.6725 12.5537 1.05562 11.543 0.635068C10.5322 0.21452 9.44808 -0.00133408 8.35334 6.20344e-06H8.34C6.12987 -0.00176191 4.00955 0.874516 2.44549 2.43607C0.88144 3.99762 0.00177078 6.11654 2.67051e-06 8.32667C-0.00176544 10.5368 0.874512 12.6571 2.43607 14.2212C3.99762 15.7852 6.11653 16.6649 8.32667 16.6667H8.34C9.98706 16.6667 11.5972 16.1786 12.967 15.264C14.3368 14.3495 15.4049 13.0495 16.0364 11.5283C16.6679 10.0071 16.8344 8.33294 16.515 6.71715C16.1956 5.10136 15.4045 3.61647 14.2417 2.45001ZM13.0467 13.0542C12.4294 13.6732 11.6957 14.1638 10.8879 14.4978C10.0801 14.8317 9.21414 15.0024 8.34 15H8.32917C6.56106 14.9986 4.86594 14.2948 3.61671 13.0436C2.36748 11.7923 1.66648 10.096 1.66792 8.32792C1.66936 6.55981 2.37311 4.86469 3.62437 3.61546C4.87563 2.36624 6.57189 1.66524 8.34 1.66667H8.35C9.66846 1.66876 10.9567 2.06175 12.0518 2.79595C13.1469 3.53014 13.9998 4.57258 14.5025 5.79144C15.0052 7.0103 15.1352 8.35086 14.8761 9.6436C14.6169 10.9363 13.9803 12.1232 13.0467 13.0542Z" fill="var(--fill-0, #5D686F)"/>
</g>
</svg>
