<svg preserveAspectRatio="none" width="100%" height="100%" overflow="visible" style="display: block;" viewBox="0 0 20.091 20.1359" fill="none" xmlns="http://www.w3.org/2000/svg">
<path id="Vector" d="M19.7952 18.4201L14.4052 13.0301C15.6698 11.4156 16.2715 9.3797 16.0875 7.33709C15.9036 5.29449 14.9479 3.39882 13.4151 2.0362C11.8824 0.673584 9.88782 -0.0534904 7.83773 0.00306863C5.78763 0.0596277 3.8362 0.895566 2.3809 2.34062C0.925596 3.78567 0.0758879 5.73115 0.00484216 7.78079C-0.0662036 9.83043 0.646757 11.8301 1.99851 13.3724C3.35026 14.9148 5.23913 15.8838 7.28038 16.0822C9.32164 16.2806 11.3617 15.6934 12.9852 14.4401L18.3752 19.8401C18.4681 19.9339 18.5787 20.0083 18.7006 20.059C18.8225 20.1098 18.9532 20.1359 19.0852 20.1359C19.2172 20.1359 19.3479 20.1098 19.4698 20.059C19.5916 20.0083 19.7022 19.9339 19.7952 19.8401C19.8889 19.7472 19.9633 19.6366 20.0141 19.5147C20.0648 19.3929 20.091 19.2622 20.091 19.1301C20.091 18.9981 20.0648 18.8674 20.0141 18.7456C19.9633 18.6237 19.8889 18.5131 19.7952 18.4201V18.4201ZM3.84518 12.3601C3.00673 11.5208 2.43595 10.4517 2.20498 9.28795C1.97401 8.12425 2.09322 6.91819 2.54754 5.82222C3.00187 4.72626 3.7709 3.78958 4.75745 3.13059C5.744 2.47159 6.90378 2.11987 8.09018 2.11987C9.27658 2.11987 10.4364 2.47159 11.4229 3.13059C12.4095 3.78958 13.1785 4.72626 13.6328 5.82222C14.0871 6.91819 14.2064 8.12425 13.9754 9.28795C13.7444 10.4517 13.1736 11.5208 12.3352 12.3601C11.7779 12.918 11.1162 13.3606 10.3878 13.6625C9.65944 13.9644 8.87867 14.1199 8.09018 14.1199C7.30169 14.1199 6.52093 13.9644 5.79254 13.6625C5.06415 13.3606 4.40242 12.918 3.84518 12.3601V12.3601Z" fill="var(--fill-0, #5D686F)"/>
</svg>
