<svg preserveAspectRatio="none" width="100%" height="100%" overflow="visible" style="display: block;" viewBox="0 0 21.9999 21.9999" fill="none" xmlns="http://www.w3.org/2000/svg">
<g id="Vector">
<path d="M11 3.818C11.2652 3.818 11.5196 3.71264 11.7071 3.52511C11.8946 3.33757 12 3.08322 12 2.818V1C12 0.734784 11.8946 0.48043 11.7071 0.292893C11.5196 0.105357 11.2652 0 11 0C10.7348 0 10.4804 0.105357 10.2929 0.292893C10.1054 0.48043 10 0.734784 10 1V2.818C10 3.08322 10.1054 3.33757 10.2929 3.52511C10.4804 3.71264 10.7348 3.818 11 3.818Z" fill="var(--fill-0, #5D686F)"/>
<path d="M5.92112 5.92212C6.10859 5.73459 6.2139 5.48028 6.2139 5.21512C6.2139 4.94995 6.10859 4.69565 5.92112 4.50812L4.63612 3.22212C4.44752 3.03996 4.19491 2.93917 3.93272 2.94144C3.67052 2.94372 3.41971 3.04889 3.2343 3.2343C3.04889 3.41971 2.94372 3.67052 2.94144 3.93272C2.93917 4.19491 3.03996 4.44752 3.22212 4.63612L4.50712 5.92212C4.69465 6.10959 4.94895 6.2149 5.21412 6.2149C5.47928 6.2149 5.73359 6.10959 5.92112 5.92212Z" fill="var(--fill-0, #5D686F)"/>
<path d="M2.818 10H1C0.734784 10 0.48043 10.1054 0.292893 10.2929C0.105357 10.4804 0 10.7348 0 11C0 11.2652 0.105357 11.5196 0.292893 11.7071C0.48043 11.8946 0.734784 12 1 12H2.818C3.08322 12 3.33757 11.8946 3.52511 11.7071C3.71264 11.5196 3.818 11.2652 3.818 11C3.818 10.7348 3.71264 10.4804 3.52511 10.2929C3.33757 10.1054 3.08322 10 2.818 10Z" fill="var(--fill-0, #5D686F)"/>
<path d="M20.9999 10H19.1819C18.9167 10 18.6623 10.1054 18.4748 10.2929C18.2872 10.4804 18.1819 10.7348 18.1819 11C18.1819 11.2652 18.2872 11.5196 18.4748 11.7071C18.6623 11.8946 18.9167 12 19.1819 12H20.9999C21.2651 12 21.5195 11.8946 21.707 11.7071C21.8945 11.5196 21.9999 11.2652 21.9999 11C21.9999 10.7348 21.8945 10.4804 21.707 10.2929C21.5195 10.1054 21.2651 10 20.9999 10Z" fill="var(--fill-0, #5D686F)"/>
<path d="M18.778 3.22247C18.5904 3.035 18.3361 2.92969 18.071 2.92969C17.8058 2.92969 17.5515 3.035 17.364 3.22247L16.079 4.50847C15.9835 4.60072 15.9073 4.71107 15.8549 4.83307C15.8025 4.95507 15.7749 5.08629 15.7737 5.21907C15.7726 5.35185 15.7979 5.48353 15.8481 5.60643C15.8984 5.72932 15.9727 5.84098 16.0666 5.93487C16.1605 6.02876 16.2721 6.10301 16.395 6.1533C16.5179 6.20358 16.6496 6.22888 16.7824 6.22772C16.9152 6.22657 17.0464 6.19898 17.1684 6.14658C17.2904 6.09417 17.4007 6.01798 17.493 5.92247L18.778 4.63647C18.9654 4.44895 19.0708 4.19464 19.0708 3.92947C19.0708 3.66431 18.9654 3.41 18.778 3.22247Z" fill="var(--fill-0, #5D686F)"/>
<path d="M11 4.5459C9.66317 4.5452 8.35913 4.95984 7.26819 5.7325C6.17724 6.50515 5.35328 7.59765 4.91023 8.85894C4.46718 10.1202 4.42692 11.488 4.79503 12.7732C5.16313 14.0584 5.9214 15.1974 6.96502 16.0329C7.06055 16.1079 7.13788 16.2035 7.19122 16.3126C7.24456 16.4217 7.27253 16.5415 7.27302 16.6629V19.1819C7.27381 19.929 7.57096 20.6453 8.09927 21.1736C8.62757 21.702 9.34388 21.9991 10.091 21.9999H11.909C12.6562 21.9991 13.3725 21.702 13.9008 21.1736C14.4291 20.6453 14.7262 19.929 14.727 19.1819V16.6629C14.7275 16.5415 14.7555 16.4217 14.8088 16.3126C14.8622 16.2035 14.9395 16.1079 15.035 16.0329C16.0786 15.1974 16.8369 14.0584 17.205 12.7732C17.5731 11.488 17.5329 10.1202 17.0898 8.85894C16.6468 7.59765 15.8228 6.50515 14.7319 5.7325C13.6409 4.95984 12.3369 4.5452 11 4.5459ZM11.909 19.9999H10.091C9.87415 19.9996 9.66624 19.9134 9.5129 19.76C9.35955 19.6067 9.27328 19.3988 9.27302 19.1819V17.7999H12.727V19.1819C12.7268 19.3988 12.6405 19.6067 12.4871 19.76C12.3338 19.9134 12.1259 19.9996 11.909 19.9999ZM13.786 14.4709C13.3628 14.8166 13.0499 15.2786 12.886 15.7999H12V13.9719C12.5334 13.7696 12.9928 13.4101 13.3174 12.941C13.6421 12.4719 13.8166 11.9154 13.818 11.3449C13.818 11.0797 13.7127 10.8253 13.5251 10.6378C13.3376 10.4503 13.0832 10.3449 12.818 10.3449C12.5528 10.3449 12.2984 10.4503 12.1109 10.6378C11.9234 10.8253 11.818 11.0797 11.818 11.3449C11.818 11.5618 11.7318 11.7699 11.5784 11.9233C11.425 12.0767 11.217 12.1629 11 12.1629C10.7831 12.1629 10.575 12.0767 10.4216 11.9233C10.2682 11.7699 10.182 11.5618 10.182 11.3449C10.182 11.0797 10.0767 10.8253 9.88912 10.6378C9.70159 10.4503 9.44723 10.3449 9.18202 10.3449C8.9168 10.3449 8.66245 10.4503 8.47491 10.6378C8.28737 10.8253 8.18202 11.0797 8.18202 11.3449C8.18314 11.9154 8.35759 12.4721 8.68225 12.9413C9.00692 13.4104 9.46647 13.7698 10 13.9719V15.7999H9.11902C8.95514 15.2786 8.64228 14.8166 8.21902 14.4709C7.49891 13.8938 6.97579 13.1073 6.72192 12.2201C6.46805 11.3329 6.49595 10.3887 6.80179 9.51808C7.10762 8.64741 7.67628 7.8932 8.42922 7.35965C9.18215 6.82609 10.0822 6.53952 11.005 6.53952C11.9278 6.53952 12.8279 6.82609 13.5808 7.35965C14.3338 7.8932 14.9024 8.64741 15.2082 9.51808C15.5141 10.3887 15.542 11.3329 15.2881 12.2201C15.0342 13.1073 14.5111 13.8938 13.791 14.4709H13.786Z" fill="var(--fill-0, #5D686F)"/>
</g>
</svg>
