<svg preserveAspectRatio="none" width="100%" height="100%" overflow="visible" style="display: block;" viewBox="0 0 19.9188 20.0011" fill="none" xmlns="http://www.w3.org/2000/svg">
<path id="Vector" d="M19.4805 6.18208L10.4895 0.172078C10.328 0.0600372 10.1361 0 9.93954 0C9.74296 0 9.55107 0.0600372 9.38954 0.172078L0.380539 6.15708C0.183657 6.31244 0.0523407 6.5361 0.0126228 6.78374C-0.0270951 7.03137 0.0276857 7.28488 0.166105 7.49402C0.304524 7.70316 0.516475 7.85265 0.759937 7.91286C1.0034 7.97307 1.2606 7.93959 1.48054 7.81908L1.92454 7.52908L1.90754 18.9891C1.90754 19.2543 2.0129 19.5086 2.20043 19.6962C2.38797 19.8837 2.64232 19.9891 2.90754 19.9891L6.90754 19.9951C7.17275 19.9951 7.42711 19.8897 7.61465 19.7022C7.80218 19.5146 7.90754 19.2603 7.90754 18.9951L7.91354 14.9951C7.91354 14.4646 8.12425 13.9559 8.49932 13.5809C8.8744 13.2058 9.38311 12.9951 9.91354 12.9951V12.9951C10.444 12.9951 10.9527 13.2058 11.3278 13.5809C11.7028 13.9559 11.9135 14.4646 11.9135 14.9951L11.9075 18.9951C11.9075 19.2603 12.0129 19.5146 12.2004 19.7022C12.388 19.8897 12.6423 19.9951 12.9075 19.9951L16.9075 20.0011C17.1728 20.0011 17.4271 19.8957 17.6146 19.7082C17.8022 19.5206 17.9075 19.2663 17.9075 19.0011L17.9245 7.55308L18.3735 7.84408C18.5347 7.9568 18.7269 8.01656 18.9235 8.01508C19.1374 8.01406 19.3454 7.94449 19.5168 7.81656C19.6883 7.68864 19.8142 7.50912 19.876 7.30436C19.9379 7.0996 19.9325 6.88039 19.8606 6.67893C19.7887 6.47748 19.6541 6.30438 19.4765 6.18508L19.4805 6.18208Z" fill="var(--fill-0, #205EA3)"/>
</svg>
