<svg preserveAspectRatio="none" width="100%" height="100%" overflow="visible" style="display: block;" viewBox="0 0 20 18" fill="none" xmlns="http://www.w3.org/2000/svg">
<path id="Vector" d="M17 3H10.721L10.405 2.051C10.2058 1.45373 9.82381 0.93426 9.31303 0.566159C8.80225 0.198059 8.1886 -1.16875e-05 7.559 5.17246e-10H3C2.20435 5.17247e-10 1.44129 0.316071 0.87868 0.87868C0.316071 1.44129 0 2.20435 0 3V15C0 15.7956 0.316071 16.5587 0.87868 17.1213C1.44129 17.6839 2.20435 18 3 18H17C17.7956 18 18.5587 17.6839 19.1213 17.1213C19.6839 16.5587 20 15.7956 20 15V6C20 5.20435 19.6839 4.44129 19.1213 3.87868C18.5587 3.31607 17.7956 3 17 3ZM3 2H7.559C7.76867 2.00009 7.97301 2.06608 8.14313 2.18864C8.31325 2.31121 8.44053 2.48414 8.507 2.683L9.051 4.316C9.11735 4.51521 9.24472 4.68847 9.41505 4.81124C9.58538 4.93401 9.79004 5.00005 10 5H17C17.2652 5 17.5196 5.10536 17.7071 5.29289C17.8946 5.48043 18 5.73478 18 6V7.184C17.6797 7.06556 17.3414 7.00331 17 7H3C2.65856 7.00331 2.32026 7.06556 2 7.184V3C2 2.73478 2.10536 2.48043 2.29289 2.29289C2.48043 2.10536 2.73478 2 3 2V2ZM18 15C18 15.2652 17.8946 15.5196 17.7071 15.7071C17.5196 15.8946 17.2652 16 17 16H3C2.73478 16 2.48043 15.8946 2.29289 15.7071C2.10536 15.5196 2 15.2652 2 15V10C2 9.73478 2.10536 9.48043 2.29289 9.29289C2.48043 9.10536 2.73478 9 3 9H17C17.2652 9 17.5196 9.10536 17.7071 9.29289C17.8946 9.48043 18 9.73478 18 10V15Z" fill="var(--fill-0, #5D686F)"/>
</svg>
