<svg preserveAspectRatio="none" width="100%" height="100%" overflow="visible" style="display: block;" viewBox="0 0 103.154 18" fill="none" xmlns="http://www.w3.org/2000/svg">
<g id="Do It Yourself">
<g id="Group">
<path id="Vector" d="M8.30769 17.3077C12.8959 17.3077 16.6154 13.5882 16.6154 9C16.6154 4.41179 12.8959 0.692308 8.30769 0.692308C3.71948 0.692308 0 4.41179 0 9C0 13.5882 3.71948 17.3077 8.30769 17.3077Z" fill="var(--fill-0, #D52B1E)"/>
<path id="Vector_2" d="M6.46202 12.0466C5.50664 11.3578 4.58784 10.6231 3.70809 9.84441C3.38446 10.553 3.09431 11.279 2.83764 12.0211C4.24065 13.2103 6.1167 14.5724 7.40315 15.3386C9.07213 11.0224 11.676 8.20705 14.1677 6.24234C13.8478 5.56657 13.4138 4.95403 12.8906 4.43139C10.2346 6.46553 8.03118 9.06448 6.46202 12.0466Z" fill="var(--fill-0, white)"/>
</g>
<path id="Vector_3" d="M20.6905 4.24911H24.2932C26.9485 4.24911 29.9052 5.512 29.9052 9.32982C29.9052 12.8891 26.9485 14.4105 24.2932 14.4105H20.6905V4.24911ZM24.0061 12.8321C25.8722 12.8321 27.9678 12.0714 27.9678 9.32982C27.9678 6.41593 25.8722 5.79905 24.0061 5.79905H22.4989V12.8321H24.0061Z" fill="var(--fill-0, black)"/>
<path id="Vector_4" d="M34.728 7.3211C36.8093 7.3211 38.4739 8.77061 38.4739 10.9381C38.4739 13.1055 36.8093 14.6126 34.728 14.6126C32.6468 14.6126 30.9821 13.1055 30.9821 10.9381C30.9821 8.77061 32.6468 7.3211 34.728 7.3211ZM34.728 13.1768C36.0913 13.1768 36.7231 12.0143 36.7231 10.9374C36.7231 9.86053 36.0913 8.72721 34.728 8.72721C33.3647 8.72721 32.7329 9.86115 32.7329 10.9374C32.7329 12.0137 33.3647 13.1768 34.728 13.1768Z" fill="var(--fill-0, black)"/>
<path id="Vector_5" d="M41.7213 4.24911H43.5298V14.4111H41.7213V4.24911Z" fill="var(--fill-0, black)"/>
<path id="Vector_6" d="M44.5602 8.89956V7.52197H45.7661V5.52688H47.4598V7.52197H49.1821V8.89956H47.4598V12.1005C47.4598 12.718 47.6031 13.1625 48.3638 13.1625C48.5932 13.1625 48.8951 13.1191 49.096 13.0187L49.1536 14.3678C48.8523 14.4825 48.3929 14.5544 48.0054 14.5544C46.1827 14.5544 45.7661 13.4347 45.7661 12.1141V8.89894H44.5602V8.89956Z" fill="var(--fill-0, black)"/>
<path id="Vector_7" d="M55.4005 10.005L51.5827 4.24974H53.7929L56.3478 8.52697L58.9313 4.24974H61.0268L57.209 10.005V14.4112H55.4005V10.005Z" fill="var(--fill-0, black)"/>
<path id="Vector_8" d="M62.7577 7.32112C64.839 7.32112 66.5036 8.77063 66.5036 10.9381C66.5036 13.1055 64.839 14.6127 62.7577 14.6127C60.6764 14.6127 59.0118 13.1055 59.0118 10.9381C59.0112 8.77063 60.6764 7.32112 62.7577 7.32112ZM62.7577 13.1768C64.121 13.1768 64.7528 12.0144 64.7528 10.9375C64.7528 9.86055 64.121 8.72723 62.7577 8.72723C61.3944 8.72723 60.7626 9.86117 60.7626 10.9375C60.7626 12.0137 61.3937 13.1768 62.7577 13.1768Z" fill="var(--fill-0, black)"/>
<path id="Vector_9" d="M74.1857 14.4112H72.5495V13.3057H72.521C72.2197 13.9945 71.4013 14.612 70.3821 14.612C68.5879 14.612 67.8414 13.2345 67.8414 11.8277V7.52198H69.5637V11.3398C69.5637 12.1582 69.7503 13.1768 70.8551 13.1768C71.9457 13.1768 72.4627 12.2295 72.4627 11.3107V7.52137H74.185V14.4112H74.1857Z" fill="var(--fill-0, black)"/>
<path id="Vector_10" d="M75.6477 7.52197H77.2981V8.67017H77.3266C77.6999 7.88094 78.4321 7.3211 79.336 7.3211C79.4649 7.3211 79.6373 7.33536 79.752 7.36388V8.94296C79.5226 8.8853 79.3788 8.87104 79.2207 8.87104C77.6707 8.87104 77.3694 10.2201 77.3694 10.7223V14.4112H75.6471V7.52197H75.6477Z" fill="var(--fill-0, black)"/>
<path id="Vector_11" d="M84.8024 9.35896C84.5011 8.95722 83.927 8.61252 83.2952 8.61252C82.7497 8.61252 82.1898 8.81338 82.1898 9.35896C82.1898 9.89028 82.7211 10.0335 83.6827 10.2629C84.702 10.5072 85.9072 10.9659 85.9072 12.3156C85.9072 13.9952 84.5439 14.612 83.0367 14.612C81.9747 14.612 80.8693 14.2103 80.209 13.4781L81.3429 12.4161C81.7162 12.904 82.3622 13.2772 83.1086 13.2772C83.6108 13.2772 84.214 13.0763 84.214 12.4588C84.214 11.8847 83.6827 11.7124 82.635 11.4687C81.6157 11.2245 80.5971 10.8085 80.5971 9.51706C80.5971 7.98138 81.9747 7.3211 83.3386 7.3211C84.3287 7.3211 85.3622 7.66581 85.9221 8.36886L84.8024 9.35896Z" fill="var(--fill-0, black)"/>
<path id="Vector_12" d="M93.818 11.5121H88.5792C88.6511 12.488 89.5408 13.2059 90.5458 13.2059C91.4069 13.2059 91.981 12.8612 92.3685 12.3163L93.5167 13.2351C92.8421 14.1539 91.8663 14.6126 90.56 14.6126C88.436 14.6126 86.8569 13.2493 86.8569 11.01C86.8569 8.78548 88.4211 7.3211 90.5024 7.3211C92.4255 7.3211 93.8323 8.56974 93.8323 11.0527C93.8323 11.2102 93.8323 11.3541 93.818 11.5121ZM92.11 10.2778C92.11 9.38811 91.6078 8.61314 90.4881 8.61314C89.4689 8.61314 88.6511 9.31619 88.5792 10.2778H92.11Z" fill="var(--fill-0, black)"/>
<path id="Vector_13" d="M95.0835 3.56033H96.8058V14.4112H95.0835V3.56033Z" fill="var(--fill-0, black)"/>
<path id="Vector_14" d="M99.1218 8.89957H97.8155V7.52198H99.1218V6.50274C99.1218 4.85236 99.7678 3.38797 101.906 3.38797C102.279 3.38797 102.523 3.41649 102.782 3.48841L102.667 4.95217C102.48 4.89452 102.251 4.85174 102.007 4.85174C101.016 4.85174 100.844 5.71289 100.844 6.40168V7.52136H102.437V8.89895H100.844V14.4105H99.1218V8.89957Z" fill="var(--fill-0, black)"/>
</g>
</svg>
