<svg width="32" height="32" viewBox="0 0 32 32" fill="none" xmlns="http://www.w3.org/2000/svg">
<rect width="32" height="32" rx="16" fill="#008600"/>
<path d="M11.5098 21.1445C12.8641 21.1445 14.3084 20.4548 14.7582 20.1424V22.2088C14.3472 22.4247 12.9404 23 11.1737 23C8.23141 23 6 20.9197 6 17.2048C6 13.3947 8.4563 11.3867 11.3999 11.3867C13.9236 11.3867 14.7807 12.1869 14.7807 12.9247C14.7781 13.3388 14.6162 13.7354 14.3297 14.0297C13.4725 13.4973 12.4842 13.2234 11.4798 13.2397C9.46705 13.2397 8.1377 14.5872 8.1377 17.1769C8.1377 19.8008 9.5795 21.1445 11.5098 21.1445ZM22.2545 17.0803C23.6904 15.4544 24.8221 13.5757 25.5942 11.5366L23.7038 10.8343C22.4982 14.0538 20.6966 16.2167 18.5201 18.0075V7H16.4749V22.765H18.5226V20.4383C19.3147 19.867 20.0697 19.2442 20.7828 18.5739L22.6456 21.7833C23.1129 22.5822 23.7338 22.9987 24.6646 22.9987C24.9952 23.0062 25.322 22.9261 25.6129 22.7663L22.2545 17.0803Z" fill="white"/>
</svg>
