<svg width="32" height="32" viewBox="0 0 32 32" fill="none" xmlns="http://www.w3.org/2000/svg">
<path d="M15.9998 32C24.8364 32 32 24.8364 32 15.9999C32 7.16342 24.8364 0 15.9998 0C7.16325 0 0 7.16342 0 15.9999C0 24.8364 7.16325 32 15.9998 32Z" fill="#D52B1E"/>
<path d="M12.4503 21.8364C10.5812 20.5105 8.82579 19.0961 7.13359 17.5807C6.51504 18.9067 5.98475 20.321 5.4541 21.748C8.11862 24.0463 11.7431 26.6223 14.2307 28.1253C17.4128 19.8917 22.3888 14.4742 27.1621 10.6731C26.5432 9.34713 25.7478 8.18533 24.6742 7.22559C19.623 11.1151 15.4558 16.078 12.4503 21.8364Z" fill="white"/>
</svg>
