<svg preserveAspectRatio="none" width="100%" height="100%" overflow="visible" style="display: block;" viewBox="0 0 23.3333 18.6667" fill="none" xmlns="http://www.w3.org/2000/svg">
<path id="Vector" d="M19.8333 0H3.5C2.57174 0 1.6815 0.368749 1.02513 1.02513C0.368749 1.6815 0 2.57174 0 3.5V15.1667C0 16.0949 0.368749 16.9852 1.02513 17.6415C1.6815 18.2979 2.57174 18.6667 3.5 18.6667H19.8333C20.7616 18.6667 21.6518 18.2979 22.3082 17.6415C22.9646 16.9852 23.3333 16.0949 23.3333 15.1667V3.5C23.3333 2.57174 22.9646 1.6815 22.3082 1.02513C21.6518 0.368749 20.7616 0 19.8333 0V0ZM3.5 2.33333H19.8333C20.1428 2.33333 20.4395 2.45625 20.6583 2.67504C20.8771 2.89383 21 3.19058 21 3.5V4.99217L12.0353 7.98117C11.7959 8.05988 11.5375 8.05988 11.298 7.98117L2.33333 4.99217V3.5C2.33333 3.19058 2.45625 2.89383 2.67504 2.67504C2.89383 2.45625 3.19058 2.33333 3.5 2.33333V2.33333ZM19.8333 16.3333H3.5C3.19058 16.3333 2.89383 16.2104 2.67504 15.9916C2.45625 15.7728 2.33333 15.4761 2.33333 15.1667V7.4515L10.5595 10.1943C11.2791 10.4328 12.0565 10.4328 12.7762 10.1943L21 7.4515V15.1667C21 15.4761 20.8771 15.7728 20.6583 15.9916C20.4395 16.2104 20.1428 16.3333 19.8333 16.3333Z" fill="var(--fill-0, #21262A)"/>
</svg>
