<svg preserveAspectRatio="none" width="100%" height="100%" overflow="visible" style="display: block;" viewBox="0 0 28 28" fill="none" xmlns="http://www.w3.org/2000/svg">
<g id="star">
<path id="Vector" d="M13.665 3.15039C19.4619 3.15039 24.1797 7.86821 24.1797 13.665C24.1796 19.4618 19.4618 24.1797 13.665 24.1797C11.9324 24.1797 10.2189 23.7493 8.69922 22.9336L8.30859 22.7236L7.87891 22.8301L3.42285 23.9336L4.61035 19.7012L4.73926 19.2412L4.50391 18.8252C3.61777 17.2556 3.1504 15.4756 3.15039 13.665C3.15039 7.86821 7.86821 3.15039 13.665 3.15039Z" stroke="var(--stroke-0, #21262A)" stroke-width="2.3"/>
<path id="Vector_2" d="M17.5106 19.1869C18.0857 19.1022 19.2826 18.4718 19.5322 17.781C19.7817 17.0908 19.7817 16.4984 19.7066 16.3757C19.6316 16.2524 19.4318 16.1784 19.1325 16.0303C18.8333 15.8822 17.361 15.1671 17.0861 15.0687C16.8112 14.9698 16.6114 14.9211 16.4121 15.2168C16.2127 15.5125 15.6386 16.1784 15.4641 16.3762C15.2897 16.5735 15.1147 16.5983 14.8155 16.4502C14.5162 16.3021 13.5511 15.9897 12.4074 14.9825C11.5168 14.1984 10.9158 13.2302 10.7414 12.934C10.5669 12.6378 10.7226 12.478 10.8727 12.3305C11.0076 12.1976 11.1719 11.9851 11.3221 11.8121C11.4722 11.6392 11.5219 11.5159 11.6213 11.3187C11.7207 11.1214 11.671 10.9484 11.5959 10.8003C11.5219 10.6517 10.9229 9.19664 10.6734 8.60427C10.4305 8.02711 10.1835 8.10572 9.99937 8.09659C9.82439 8.08847 9.62507 8.08594 9.42525 8.08594C9.22542 8.08594 8.90134 8.15998 8.62645 8.45617C8.35156 8.75236 7.57812 9.46798 7.57812 10.9231C7.57812 12.3693 8.63834 13.767 8.7981 13.9776L8.80092 13.9813C8.95104 14.1786 10.9128 17.1653 13.9168 18.4465C14.6314 18.7513 15.1893 18.9328 15.6239 19.0698C16.341 19.295 16.9943 19.2625 17.5106 19.1869Z" fill="var(--fill-0, #21262A)"/>
</g>
</svg>
