<svg preserveAspectRatio="none" width="100%" height="100%" overflow="visible" style="display: block;" viewBox="0 0 5.34172 9.33314" fill="none" xmlns="http://www.w3.org/2000/svg">
<path id="Vector" d="M0.668528 9.33314C0.536444 9.3335 0.407227 9.29463 0.297272 9.22144C0.187317 9.14825 0.101581 9.04405 0.0509418 8.92206C0.000302285 8.80007 -0.0129583 8.66579 0.0128431 8.53625C0.0386445 8.40671 0.102345 8.28775 0.195862 8.19447L3.7292 4.67114L0.208528 1.1378C0.146676 1.07582 0.0976373 1.00226 0.0642131 0.921323C0.030789 0.840387 0.0136334 0.75366 0.0137262 0.666095C0.0138191 0.578529 0.0311585 0.491839 0.0647542 0.410975C0.0983499 0.33011 0.147544 0.256655 0.209528 0.194802C0.271512 0.132949 0.345072 0.0839111 0.426007 0.0504869C0.506943 0.0170628 0.59367 -9.24843e-05 0.681235 3.74965e-07C0.768801 9.32342e-05 0.855491 0.0174326 0.936355 0.0510283C1.01722 0.084624 1.09068 0.133818 1.15253 0.195802L5.14653 4.2018C5.27151 4.32682 5.34172 4.49636 5.34172 4.67314C5.34172 4.84991 5.27151 5.01945 5.14653 5.14447L1.13919 9.13847C1.07746 9.20036 1.00409 9.24942 0.923311 9.28283C0.842533 9.31624 0.755942 9.33334 0.668528 9.33314Z" fill="var(--fill-0, white)"/>
</svg>
