<svg preserveAspectRatio="none" width="100%" height="100%" overflow="visible" style="display: block;" viewBox="0 0 32.0001 32.0001" fill="none" xmlns="http://www.w3.org/2000/svg">
<g id="icon">
<path id="Vector" d="M15.9999 32.0001C24.8364 32.0001 32.0001 24.8365 32.0001 16C32.0001 7.16353 24.8364 0.000113515 15.9999 0.000113515C7.16331 0.000113515 5.4677e-05 7.16353 5.4677e-05 16C5.4677e-05 24.8365 7.16331 32.0001 15.9999 32.0001Z" fill="var(--fill-0, #D52B1E)"/>
<path id="Vector_2" d="M12.4497 21.8349C10.5807 20.5089 8.82526 19.0946 7.13306 17.5792C6.51451 18.9052 5.98423 20.3195 5.45357 21.7465C8.11809 24.0448 11.7426 26.6208 14.2302 28.1238C17.4123 19.8901 22.3883 14.4726 27.1616 10.6716C26.5427 9.3456 25.7473 8.1838 24.6736 7.22405C19.6224 11.1136 15.4553 16.0764 12.4497 21.8349Z" fill="var(--fill-0, white)"/>
</g>
</svg>
