<svg width="32" height="32" viewBox="0 0 32 32" fill="none" xmlns="http://www.w3.org/2000/svg">
<path d="M18.2156 16.6694L18.3586 29.6H13.6396L13.7827 16.6694H18.2156Z" fill="#1C0265"/>
<path d="M17.5666 15.1108L26.8615 24.1558L23.5205 27.4724L14.4336 18.2271L17.5666 15.1108Z" fill="#4988F0"/>
<path d="M16 14.4668L28.9999 14.3311V19.0184L16 18.8761V14.4668Z" fill="#98C2F5"/>
<path d="M14.4336 15.1114L23.527 5.87256L26.8615 9.18925L17.5666 18.2277L14.4336 15.1114Z" fill="#C0DDF6"/>
<path d="M15.9999 18.8743L3 19.0165V14.3228L15.9999 14.465V18.8743Z" fill="#1B4BE7"/>
<path d="M17.5656 18.2271L8.47214 27.4724L5.1377 24.1558L14.4326 15.1108L17.5656 18.2271Z" fill="#1E27BE"/>
<circle cx="15.9961" cy="5.89799" r="3.29789" fill="#1C0265"/>
<path d="M17.5363 15.0822C17.9548 15.4832 18.2165 16.0452 18.2165 16.6688C18.2164 17.8862 17.2241 18.873 16.0002 18.8731C15.3882 18.8731 14.8344 18.626 14.4333 18.2271L14.4327 18.2285L5.1377 9.1832L8.47924 5.86621L17.5363 15.0822Z" fill="#236CFF"/>
</svg>
