<svg preserveAspectRatio="none" width="100%" height="100%" overflow="visible" style="display: block;" viewBox="0 0 19 20" fill="none" xmlns="http://www.w3.org/2000/svg">
<g id="Vector">
<path d="M7.25 17.5C7.94036 17.5 8.5 18.0596 8.5 18.75C8.5 19.4404 7.94036 20 7.25 20C6.55964 20 6 19.4404 6 18.75C6 18.0596 6.55964 17.5 7.25 17.5Z" fill="var(--fill-0, #1D1D1D)"/>
<path d="M15.75 17.5C16.4404 17.5 17 18.0596 17 18.75C17 19.4404 16.4404 20 15.75 20C15.0596 20 14.5 19.4404 14.5 18.75C14.5 18.0596 15.0596 17.5 15.75 17.5Z" fill="var(--fill-0, #1D1D1D)"/>
<path fill-rule="evenodd" clip-rule="evenodd" d="M4.04688 3H19V9.46777C19 11.4294 17.4882 13.0594 15.5322 13.207L5.50391 13.9639C5.80505 14.8659 6.6549 15.5 7.6377 15.5H18V17H7.6377C5.75219 17 4.16024 15.5995 3.91895 13.7295L2.33984 1.5H0V0H3.65918L4.04688 3ZM5.26855 12.4766L15.4189 11.7119C16.5926 11.6233 17.5 10.6447 17.5 9.46777V4.5H4.24023L5.26855 12.4766Z" fill="var(--fill-0, #1D1D1D)"/>
</g>
</svg>
