<svg preserveAspectRatio="none" width="100%" height="100%" overflow="visible" style="display: block;" viewBox="0 0 28 28" fill="none" xmlns="http://www.w3.org/2000/svg">
<g id="facebook">
<g id="Vector">
<path d="M12.7383 12.4063V10.8488C12.7014 10.4795 12.7458 10.1066 12.8682 9.75618C12.9907 9.40581 13.1882 9.08644 13.4471 8.82046C13.706 8.55448 14.0198 8.34833 14.3668 8.21644C14.7137 8.08455 15.0853 8.03012 15.4555 8.05696C16.001 8.05532 16.5462 8.08258 17.0888 8.13862V10.0275H15.9711C15.0903 10.0275 14.9211 10.4451 14.9211 11.0565V12.4063H17.0141L16.7411 14.5191H14.9211V19.9395H12.7383V14.5191H10.9148V12.4063H12.7383Z" fill="var(--fill-0, #21262A)"/>
<path fill-rule="evenodd" clip-rule="evenodd" d="M7.519 4.29822C9.43758 3.01627 11.6932 2.33203 14.0007 2.33203C15.5327 2.33203 17.0498 2.6338 18.4653 3.2201C19.8808 3.80641 21.1669 4.66577 22.2502 5.74912C23.3336 6.83247 24.1929 8.11859 24.7793 9.53406C25.3656 10.9495 25.6673 12.4666 25.6673 13.9987C25.6673 16.3061 24.9831 18.5618 23.7011 20.4804C22.4192 22.3989 20.5971 23.8943 18.4653 24.7773C16.3335 25.6603 13.9877 25.8914 11.7246 25.4412C9.46149 24.991 7.38269 23.8799 5.75108 22.2483C4.11946 20.6167 3.00832 18.5379 2.55816 16.2748C2.108 14.0116 2.33904 11.6659 3.22206 9.53406C4.10508 7.40225 5.60043 5.58017 7.519 4.29822ZM8.16717 22.7291C9.89388 23.8829 11.924 24.4987 14.0007 24.4987C16.7845 24.4956 19.4534 23.3884 21.4219 21.4199C23.3903 19.4514 24.4976 16.7825 24.5007 13.9987C24.5007 11.922 23.8848 9.89193 22.7311 8.16521C21.5773 6.43849 19.9375 5.09268 18.0188 4.29796C16.1002 3.50324 13.989 3.29531 11.9522 3.70045C9.91541 4.1056 8.04449 5.10562 6.57603 6.57408C5.10758 8.04253 4.10756 9.91345 3.70241 11.9502C3.29727 13.987 3.5052 16.0982 4.29992 18.0169C5.09464 19.9355 6.44045 21.5754 8.16717 22.7291Z" fill="var(--fill-0, #21262A)"/>
</g>
<path id="Vector_2" d="M13.999 3.48242C15.38 3.48246 16.7476 3.75376 18.0234 4.28223C19.2994 4.81074 20.459 5.58595 21.4355 6.5625C22.412 7.539 23.1864 8.69881 23.7148 9.97461C24.2432 11.2504 24.5156 12.6181 24.5156 13.999C24.5156 16.0789 23.8987 18.1124 22.7432 19.8418C21.5876 21.5711 19.945 22.9189 18.0234 23.7148C16.1019 24.5108 13.9872 24.7192 11.9473 24.3135C9.90738 23.9077 8.03323 22.9062 6.5625 21.4355C5.09183 19.9649 4.09042 18.0906 3.68457 16.0508C3.27882 14.0109 3.48642 11.8961 4.28223 9.97461C5.07821 8.05295 6.4268 6.41047 8.15625 5.25488C9.88571 4.0993 11.919 3.48242 13.999 3.48242Z" stroke="var(--stroke-0, #21262A)" stroke-width="2.3"/>
</g>
</svg>
