<svg preserveAspectRatio="none" width="100%" height="100%" overflow="visible" style="display: block;" viewBox="0 0 28 28" fill="none" xmlns="http://www.w3.org/2000/svg">
<g id="linkedin">
<g id="Vector">
<path d="M9.18599 8.83613C9.39945 8.69398 9.65028 8.61836 9.90674 8.61882C10.0768 8.61882 10.2453 8.65236 10.4024 8.71753C10.5595 8.78269 10.7023 8.87821 10.8224 8.9986C10.9426 9.11899 11.0379 9.26189 11.1028 9.41914C11.1676 9.57638 11.2009 9.74488 11.2006 9.91498C11.2006 10.1714 11.1245 10.4221 10.982 10.6353C10.8394 10.8485 10.6369 11.0147 10.3999 11.1127C10.1629 11.2107 9.90217 11.2363 9.65067 11.1861C9.39918 11.1359 9.16823 11.0122 8.98705 10.8307C8.80587 10.6492 8.68261 10.418 8.63286 10.1664C8.58311 9.91483 8.60911 9.65415 8.70757 9.41734C8.80603 9.18054 8.97253 8.97827 9.18599 8.83613Z" fill="var(--fill-0, #21262A)"/>
<path d="M8.79024 12.1917H11.0232V19.3772H8.79024V12.1917Z" fill="var(--fill-0, #21262A)"/>
<path d="M16.7096 12.0155C16.2845 12.0001 15.8633 12.1005 15.491 12.306C15.1186 12.5115 14.8091 12.8144 14.5956 13.1822H14.5664V12.201H12.4244V19.3877H14.6551V15.8235C14.6551 14.8902 14.8336 13.979 15.9956 13.979C17.1564 13.979 17.1564 15.0467 17.1564 15.8817V19.376H19.3894V15.4339C19.3894 13.4995 18.9706 12.0155 16.7096 12.0155Z" fill="var(--fill-0, #21262A)"/>
<path fill-rule="evenodd" clip-rule="evenodd" d="M7.519 4.29822C9.43758 3.01627 11.6932 2.33203 14.0007 2.33203C15.5327 2.33203 17.0498 2.6338 18.4653 3.2201C19.8808 3.80641 21.1669 4.66577 22.2502 5.74912C23.3336 6.83247 24.1929 8.11859 24.7793 9.53406C25.3656 10.9495 25.6673 12.4666 25.6673 13.9987C25.6673 16.3061 24.9831 18.5618 23.7011 20.4803C22.4192 22.3989 20.5971 23.8943 18.4653 24.7773C16.3335 25.6603 13.9877 25.8914 11.7246 25.4412C9.46149 24.991 7.38269 23.8799 5.75108 22.2483C4.11946 20.6167 3.00832 18.5379 2.55816 16.2748C2.108 14.0116 2.33904 11.6659 3.22206 9.53406C4.10508 7.40225 5.60043 5.58017 7.519 4.29822ZM8.16717 22.7291C9.89388 23.8829 11.924 24.4987 14.0007 24.4987C16.7845 24.4956 19.4534 23.3884 21.4219 21.4199C23.3903 19.4514 24.4976 16.7825 24.5007 13.9987C24.5007 11.922 23.8848 9.89193 22.7311 8.16521C21.5773 6.43849 19.9375 5.09268 18.0188 4.29796C16.1002 3.50324 13.989 3.29531 11.9522 3.70045C9.91541 4.1056 8.04449 5.10562 6.57603 6.57408C5.10758 8.04253 4.10756 9.91345 3.70241 11.9502C3.29727 13.987 3.5052 16.0982 4.29992 18.0169C5.09464 19.9355 6.44045 21.5754 8.16717 22.7291Z" fill="var(--fill-0, #21262A)"/>
</g>
<path id="Vector_2" d="M13.999 3.48242C15.38 3.48246 16.7476 3.75376 18.0234 4.28223C19.2994 4.81074 20.459 5.58595 21.4355 6.5625C22.412 7.539 23.1864 8.69881 23.7148 9.97461C24.2432 11.2504 24.5156 12.6181 24.5156 13.999C24.5156 16.0789 23.8987 18.1124 22.7432 19.8418C21.5876 21.5711 19.945 22.9189 18.0234 23.7148C16.1019 24.5108 13.9872 24.7192 11.9473 24.3135C9.90738 23.9077 8.03323 22.9062 6.5625 21.4355C5.09183 19.9649 4.09042 18.0906 3.68457 16.0508C3.27882 14.0109 3.48642 11.8961 4.28223 9.97461C5.07821 8.05295 6.4268 6.41047 8.15625 5.25488C9.88571 4.0993 11.919 3.48242 13.999 3.48242Z" stroke="var(--stroke-0, #21262A)" stroke-width="2.3"/>
</g>
</svg>
