<svg width="24" height="24" viewBox="0 0 24 24" fill="none" xmlns="http://www.w3.org/2000/svg">
  <g transform="translate(5.25 2.25)">
    <path d="M12.75 8C12.9489 8 13.1396 8.07907 13.2803 8.21973C13.4209 8.36038 13.5 8.55109 13.5 8.75L13.4922 9.05273C13.4214 10.5653 12.8444 12.0136 11.8486 13.1621C10.7864 14.3872 9.31857 15.19 7.71387 15.4229L7.5 15.4541V18H8.75C8.94891 18 9.13962 18.0791 9.28027 18.2197C9.42093 18.3604 9.5 18.5511 9.5 18.75C9.5 18.9489 9.42093 19.1396 9.28027 19.2803C9.13962 19.4209 8.94891 19.5 8.75 19.5H4.75C4.55109 19.5 4.36038 19.4209 4.21973 19.2803C4.07907 19.1396 4 18.9489 4 18.75C4 18.5511 4.07907 18.3604 4.21973 18.2197C4.36038 18.0791 4.55109 18 4.75 18H6V15.4541L5.78613 15.4229C4.18143 15.19 2.71361 14.3872 1.65137 13.1621C0.655639 12.0136 0.0786356 10.5653 0.0078125 9.05273L0 8.75C0 8.55109 0.0790742 8.36038 0.219727 8.21973C0.360379 8.07907 0.551088 8 0.75 8C0.948912 8 1.13962 8.07907 1.28027 8.21973C1.42093 8.36038 1.5 8.55109 1.5 8.75C1.5 10.1424 2.05352 11.4773 3.03809 12.4619C4.02265 13.4465 5.35761 14 6.75 14C8.14239 14 9.47735 13.4465 10.4619 12.4619C11.4465 11.4773 12 10.1424 12 8.75C12 8.55109 12.0791 8.36038 12.2197 8.21973C12.3604 8.07907 12.5511 8 12.75 8Z" fill="#21262A"/>
    <path fill-rule="evenodd" clip-rule="evenodd" d="M6.75 0C7.74456 0 8.69811 0.395371 9.40137 1.09863C10.1046 1.80189 10.5 2.75544 10.5 3.75V8.75C10.5 9.74456 10.1046 10.6981 9.40137 11.4014C8.69811 12.1046 7.74456 12.5 6.75 12.5C5.75544 12.5 4.80189 12.1046 4.09863 11.4014C3.39537 10.6981 3 9.74456 3 8.75V3.75C3 2.75544 3.39537 1.80189 4.09863 1.09863C4.80189 0.395371 5.75544 0 6.75 0ZM6.75 1.5C6.15326 1.5 5.58114 1.73722 5.15918 2.15918C4.73722 2.58114 4.5 3.15326 4.5 3.75V8.75C4.5 9.34674 4.73722 9.91886 5.15918 10.3408C5.58114 10.7628 6.15326 11 6.75 11C7.34674 11 7.91886 10.7628 8.34082 10.3408C8.76278 9.91886 9 9.34674 9 8.75V3.75C9 3.15326 8.76278 2.58114 8.34082 2.15918C7.91886 1.73722 7.34674 1.5 6.75 1.5Z" fill="#21262A"/>
  </g>
</svg>
