<svg preserveAspectRatio="none" width="100%" height="100%" overflow="visible" style="display: block;" viewBox="0 0 20 19" fill="none" xmlns="http://www.w3.org/2000/svg">
<g id="Vector">
<path d="M14 7H16.5C16.6326 7 16.7598 6.94732 16.8536 6.85355C16.9473 6.75979 17 6.63261 17 6.5C17 6.36739 16.9473 6.24021 16.8536 6.14645C16.7598 6.05268 16.6326 6 16.5 6H15.5C14.837 6.0663 14.1748 5.8665 13.659 5.44454C13.1433 5.02259 12.8163 4.41304 12.75 3.75C12.6837 3.08696 12.8835 2.42474 13.3055 1.90901C13.7274 1.39328 14.337 1.0663 15 1C15 0.734784 15.1054 0.48043 15.2929 0.292893C15.4805 0.105357 15.7348 0 16 0C16.2652 0 16.5196 0.105357 16.7071 0.292893C16.8947 0.48043 17 0.734784 17 1H18C18.2652 1 18.5196 1.10536 18.7071 1.29289C18.8947 1.48043 19 1.73478 19 2C19 2.26522 18.8947 2.51957 18.7071 2.70711C18.5196 2.89464 18.2652 3 18 3H15.5C15.3674 3 15.2402 3.05268 15.1465 3.14645C15.0527 3.24021 15 3.36739 15 3.5C15 3.63261 15.0527 3.75979 15.1465 3.85355C15.2402 3.94732 15.3674 4 15.5 4H16.5C17.1631 3.9337 17.8253 4.1335 18.341 4.55546C18.8567 4.97741 19.1837 5.58696 19.25 6.25C19.3163 6.91304 19.1165 7.57526 18.6946 8.09099C18.2726 8.60672 17.6631 8.9337 17 9C17 9.26522 16.8947 9.51957 16.7071 9.70711C16.5196 9.89464 16.2652 10 16 10C15.7348 10 15.4805 9.89464 15.2929 9.70711C15.1054 9.51957 15 9.26522 15 9H14C13.7348 9 13.4805 8.89464 13.2929 8.70711C13.1054 8.51957 13 8.26522 13 8C13 7.73478 13.1054 7.48043 13.2929 7.29289C13.4805 7.10536 13.7348 7 14 7Z" fill="var(--fill-0, #21612C)"/>
<path fill-rule="evenodd" clip-rule="evenodd" d="M14.21 14H17C17.7956 14 18.5587 14.3161 19.1213 14.8787C19.6839 15.4413 20 16.2043 20 17V17.5C20 17.8978 19.842 18.2794 19.5607 18.5607C19.2794 18.842 18.8978 19 18.5 19H8.83C8.03462 18.9993 7.27207 18.6828 6.71 18.12L4.59 16H4C4 16.2652 3.89464 16.5196 3.70711 16.7071C3.51957 16.8946 3.26522 17 3 17H1C0.734784 17 0.48043 16.8946 0.292893 16.7071C0.105357 16.5196 0 16.2652 0 16C0 15.7348 0.105357 15.4804 0.292893 15.2929C0.48043 15.1054 0.734784 15 1 15H2V9H1C0.734784 9 0.48043 8.89464 0.292893 8.70711C0.105357 8.51957 0 8.26522 0 8C0 7.73478 0.105357 7.48043 0.292893 7.29289C0.48043 7.10536 0.734784 7 1 7H3C3.26522 7 3.51957 7.10536 3.70711 7.29289C3.89464 7.48043 4 7.73478 4 8H8.17C8.96538 8.0007 9.72793 8.31723 10.29 8.88L13.57 12.16C13.8077 12.3991 13.9887 12.6887 14.0995 13.0071C14.2102 13.3256 14.248 13.6649 14.21 14ZM8.12 16.71C8.31163 16.8927 8.56523 16.9963 8.83 17H18C18 16.7348 17.8946 16.4804 17.7071 16.2929C17.5196 16.1054 17.2652 16 17 16H11C10.8684 16.0008 10.7379 15.9755 10.6161 15.9258C10.4943 15.876 10.3834 15.8027 10.29 15.71L8.29 13.71C8.1017 13.5217 7.99591 13.2663 7.99591 13C7.99591 12.7337 8.1017 12.4783 8.29 12.29C8.4783 12.1017 8.7337 11.9959 9 11.9959C9.2663 11.9959 9.5217 12.1017 9.71 12.29L11.41 14H12.09L12.16 13.93C12.1842 13.9067 12.2034 13.8787 12.2166 13.8478C12.2297 13.8169 12.2365 13.7836 12.2365 13.75C12.2365 13.7164 12.2297 13.6831 12.2166 13.6522C12.2034 13.6213 12.1842 13.5933 12.16 13.57L8.88 10.29C8.68837 10.1073 8.43477 10.0037 8.17 10H4V14H5C5.13161 13.9992 5.26207 14.0245 5.38391 14.0742C5.50574 14.124 5.61656 14.1973 5.71 14.29L8.12 16.71Z" fill="var(--fill-0, #21612C)"/>
</g>
</svg>
