<svg preserveAspectRatio="none" width="100%" height="100%" overflow="visible" style="display: block;" viewBox="0 0 17.993 20.01" fill="none" xmlns="http://www.w3.org/2000/svg">
<g id="Vector">
<path d="M13.5 5.217H14.014C14.2792 5.217 14.5336 5.11164 14.7211 4.92411C14.9086 4.73657 15.014 4.48222 15.014 4.217C15.014 3.95178 14.9086 3.69743 14.7211 3.50989C14.5336 3.32236 14.2792 3.217 14.014 3.217H13.027L13.548 2.178C13.6628 1.94943 13.7172 1.69531 13.706 1.43979C13.6949 1.18427 13.6186 0.93584 13.4845 0.718099C13.3503 0.500358 13.1627 0.32054 12.9394 0.19573C12.7162 0.0709201 12.4648 0.00526412 12.209 0.00500011L5.823 0C5.56805 0.000174931 5.31735 0.0653314 5.09458 0.189316C4.8718 0.313301 4.6843 0.492023 4.54979 0.708604C4.41528 0.925185 4.33819 1.17248 4.3258 1.42713C4.31342 1.68178 4.36615 1.93539 4.479 2.164L5 3.2H4.009C3.74379 3.2 3.48943 3.30536 3.3019 3.49289C3.11436 3.68043 3.009 3.93478 3.009 4.2C3.009 4.46522 3.11436 4.71957 3.3019 4.90711C3.48943 5.09464 3.74379 5.2 4.009 5.2H4.521C3.14998 5.98664 2.01032 7.12049 1.21667 8.48747C0.423028 9.85445 0.00339856 11.4063 4.13223e-06 12.987V13.987C-0.00186003 15.5773 0.627073 17.1034 1.74886 18.2306C2.87065 19.3579 4.39372 19.9942 5.984 20L11.984 20.01H11.993C13.5823 20.0079 15.106 19.3762 16.2305 18.2531C17.355 17.1301 17.9888 15.6073 17.993 14.018V13.018C17.9949 11.4377 17.5807 9.88477 16.792 8.51537C16.0032 7.14597 14.8679 6.00838 13.5 5.217ZM6.63 2H11.394L10.787 3.209H7.234L6.63 2ZM15.994 14.015C15.9924 15.0748 15.5703 16.0907 14.8203 16.8396C14.0703 17.5884 13.0538 18.009 11.994 18.009H11.989L5.989 17.999C4.92831 17.9971 3.91178 17.5741 3.16298 16.8228C2.41418 16.0716 1.99441 15.0537 1.996 13.993V12.993C2.00024 11.1377 2.73987 9.35983 4.05277 8.04899C5.36567 6.73815 7.14474 6.00132 9 6H9.01C10.866 6.00477 12.6444 6.74562 13.9548 8.06001C15.2653 9.3744 16.0008 11.155 16 13.011L15.994 14.015Z" fill="var(--fill-0, #21612C)"/>
<path d="M8.5 10H11C11.2652 10 11.5196 9.89464 11.7071 9.70711C11.8946 9.51957 12 9.26522 12 9C12 8.73478 11.8946 8.48043 11.7071 8.29289C11.5196 8.10536 11.2652 8 11 8H10C10 7.73478 9.89465 7.48043 9.70711 7.29289C9.51957 7.10536 9.26522 7 9 7C8.73479 7 8.48043 7.10536 8.2929 7.29289C8.10536 7.48043 8 7.73478 8 8V8.05C7.39243 8.17337 6.85236 8.5181 6.48466 9.01726C6.11696 9.51643 5.94784 10.1344 6.01015 10.7512C6.07245 11.3681 6.36174 11.9398 6.82184 12.3553C7.28194 12.7709 7.88003 13.0006 8.5 13H9.5C9.63261 13 9.75979 13.0527 9.85356 13.1464C9.94733 13.2402 10 13.3674 10 13.5C10 13.6326 9.94733 13.7598 9.85356 13.8536C9.75979 13.9473 9.63261 14 9.5 14H7C6.73479 14 6.48043 14.1054 6.2929 14.2929C6.10536 14.4804 6 14.7348 6 15C6 15.2652 6.10536 15.5196 6.2929 15.7071C6.48043 15.8946 6.73479 16 7 16H8C8 16.2652 8.10536 16.5196 8.2929 16.7071C8.48043 16.8946 8.73479 17 9 17C9.26522 17 9.51957 16.8946 9.70711 16.7071C9.89465 16.5196 10 16.2652 10 16V15.95C10.6076 15.8266 11.1476 15.4819 11.5153 14.9827C11.8831 14.4836 12.0522 13.8656 11.9899 13.2488C11.9276 12.6319 11.6383 12.0602 11.1782 11.6447C10.7181 11.2291 10.12 10.9994 9.5 11H8.5C8.3674 11 8.24022 10.9473 8.14645 10.8536C8.05268 10.7598 8 10.6326 8 10.5C8 10.3674 8.05268 10.2402 8.14645 10.1464C8.24022 10.0527 8.3674 10 8.5 10Z" fill="var(--fill-0, #21612C)"/>
</g>
</svg>
