<svg preserveAspectRatio="none" width="100%" height="100%" overflow="visible" style="display: block;" viewBox="0 0 15.8917 15.8917" fill="none" xmlns="http://www.w3.org/2000/svg">
<g id="Vector">
<path d="M9.8 3.70833C10.3833 3.70833 10.8917 4.04167 11.1333 4.575L12.175 6.9C12.2667 7.11667 12.5167 7.34167 12.7667 7.45833L15.025 8.46667C15.5583 8.70833 15.8917 9.21667 15.8917 9.8C15.8917 10.3833 15.5583 10.8917 15.025 11.1333L12.7 12.175C12.4667 12.2833 12.275 12.4667 12.175 12.7L11.1333 15.025C10.8917 15.5583 10.3833 15.8917 9.8 15.8917C9.21667 15.8917 8.70833 15.5583 8.46667 15.025L7.425 12.7C7.31667 12.4667 7.13333 12.275 6.9 12.175L4.575 11.1333C4.04167 10.8917 3.70833 10.3833 3.70833 9.8C3.70833 9.21667 4.04167 8.70833 4.575 8.46667L6.9 7.425C7.13333 7.31667 7.325 7.13333 7.425 6.9L8.46667 4.575C8.70833 4.04167 9.21667 3.70833 9.8 3.70833ZM9.8 14.925L9.99167 14.5L11.0333 12.175C11.2667 11.6583 11.675 11.25 12.1917 11.0167L14.5167 9.975L14.9417 9.78333L14.5167 9.59167L12.2583 8.58333C11.725 8.34167 11.25 7.89167 11.0333 7.4L9.99167 5.075L9.8 4.65L9.60833 5.075L8.56667 7.4C8.33333 7.91667 7.925 8.325 7.40833 8.55833L5.08333 9.6L4.65833 9.79167L5.08333 9.98333L7.40833 11.025C7.925 11.2583 8.33333 11.6667 8.56667 12.1833L9.60833 14.5083L9.8 14.9333" fill="url(#paint0_linear_0_70)"/>
<path d="M6.46667 0C6.46667 0 6.625 0.0083334 6.68333 0.141667L6.99167 0.833333L7.025 0.908333L7.1 0.941667L7.79167 1.25C7.91667 1.30833 7.93333 1.425 7.93333 1.46667C7.93333 1.50833 7.925 1.625 7.79167 1.68333L7.1 1.99167L7.025 2.025L6.99167 2.1L6.68333 2.79167C6.625 2.91667 6.50833 2.93333 6.46667 2.93333C6.425 2.93333 6.30833 2.925 6.25 2.79167L5.94167 2.1L5.90833 2.025L5.83333 1.99167L5.14167 1.68333C5.01667 1.625 5 1.50833 5 1.46667C5 1.425 5.00833 1.30833 5.14167 1.25L5.83333 0.941667L5.90833 0.908333L5.94167 0.833333L6.25 0.141667C6.30833 0.0166667 6.425 0 6.46667 0Z" fill="url(#paint1_linear_0_70)"/>
<path d="M2.3 2.5C2.48333 2.5 2.64167 2.6 2.71667 2.76667L3.18333 3.80833L3.21667 3.88333L3.29167 3.91667L4.33333 4.38333C4.5 4.45833 4.6 4.61667 4.6 4.8C4.6 4.98333 4.5 5.14167 4.33333 5.21667L3.29167 5.68333L3.21667 5.71667L3.18333 5.79167L2.71667 6.83333C2.64167 7 2.48333 7.1 2.3 7.1C2.11667 7.1 1.95833 7 1.88333 6.83333L1.41667 5.79167L1.38333 5.71667L1.30833 5.68333L0.266667 5.21667C0.0999999 5.14167 0 4.98333 0 4.8C0 4.61667 0.0999999 4.45833 0.266667 4.38333L1.30833 3.91667L1.38333 3.88333L1.41667 3.80833L1.88333 2.76667C1.95833 2.6 2.11667 2.5 2.3 2.5Z" fill="url(#paint2_linear_0_70)"/>
</g>
<defs>
<linearGradient id="paint0_linear_0_70" x1="0" y1="0" x2="13.1331" y2="15.8917" gradientUnits="userSpaceOnUse">
<stop stop-color="#1E27BE"/>
<stop offset="0.245192" stop-color="#1B4BE7"/>
<stop offset="0.495192" stop-color="#1F5CF3"/>
<stop offset="0.75" stop-color="#4988F0"/>
<stop offset="1" stop-color="#98C2F5"/>
</linearGradient>
<linearGradient id="paint1_linear_0_70" x1="0" y1="0" x2="13.1331" y2="15.8917" gradientUnits="userSpaceOnUse">
<stop stop-color="#1E27BE"/>
<stop offset="0.245192" stop-color="#1B4BE7"/>
<stop offset="0.495192" stop-color="#1F5CF3"/>
<stop offset="0.75" stop-color="#4988F0"/>
<stop offset="1" stop-color="#98C2F5"/>
</linearGradient>
<linearGradient id="paint2_linear_0_70" x1="0" y1="0" x2="13.1331" y2="15.8917" gradientUnits="userSpaceOnUse">
<stop stop-color="#1E27BE"/>
<stop offset="0.245192" stop-color="#1B4BE7"/>
<stop offset="0.495192" stop-color="#1F5CF3"/>
<stop offset="0.75" stop-color="#4988F0"/>
<stop offset="1" stop-color="#98C2F5"/>
</linearGradient>
</defs>
</svg>
