<svg preserveAspectRatio="none" width="100%" height="100%" overflow="visible" style="display: block;" viewBox="0 0 12 9.79" fill="none" xmlns="http://www.w3.org/2000/svg">
<path id="Vector" d="M3.371 8.654C4.2 8.654 5.084 8.232 5.359 8.041V9.305C5.107 9.437 4.246 9.79 3.166 9.79C1.366 9.79 0 8.516 0 6.244C0 3.913 1.503 2.684 3.304 2.684C4.848 2.684 5.372 3.174 5.372 3.624C5.37098 3.87686 5.27206 4.1195 5.096 4.301C4.57309 3.97592 3.96765 3.80824 3.352 3.818C2.121 3.818 1.308 4.643 1.308 6.227C1.308 7.831 2.19 8.654 3.371 8.654ZM9.945 6.167C10.8255 5.16938 11.518 4.0205 11.989 2.776L10.832 2.346C10.094 4.316 8.992 5.639 7.66 6.735V0H6.409V9.646H7.661V8.222C8.147 7.872 8.609 7.492 9.045 7.082L10.185 9.045C10.47 9.534 10.85 9.789 11.42 9.789C11.622 9.794 11.822 9.744 12 9.646L9.945 6.167Z" fill="var(--fill-0, white)"/>
</svg>
