<svg width="24" height="24" viewBox="0 0 24 24" fill="none" xmlns="http://www.w3.org/2000/svg">
  <g transform="translate(5.25 5.25)">
    <path d="M6.75781 0C6.95651 0.000129401 7.14756 0.0792405 7.28809 0.219727C7.39332 0.325057 7.46431 0.458677 7.49316 0.602539L7.50781 0.75L7.50098 5.75V6H7.75098L12.751 6.00684L12.8984 6.02148C13.0422 6.05041 13.176 6.12134 13.2812 6.22656C13.4217 6.36715 13.5009 6.5581 13.501 6.75684C13.501 6.9556 13.4217 7.14649 13.2812 7.28711C13.1407 7.42765 12.9497 7.50671 12.751 7.50684L7.75098 7.5H7.50098V7.75L7.49316 12.75L7.47852 12.8975C7.44968 13.0413 7.37864 13.1749 7.27344 13.2803C7.13294 13.4208 6.94183 13.4998 6.74316 13.5C6.54441 13.5 6.35351 13.4207 6.21289 13.2803C6.07224 13.1396 5.99316 12.9489 5.99316 12.75L6.00098 7.75V7.5H5.75098L0.750977 7.49219C0.552224 7.49219 0.361323 7.4129 0.220703 7.27246C0.0800949 7.13185 4.96122e-05 6.94103 0 6.74219C0 6.54332 0.0801093 6.35256 0.220703 6.21191C0.361332 6.07141 0.55218 5.99219 0.750977 5.99219L5.75098 6H6.00098V5.75L6.00781 0.75C6.00781 0.551126 6.08694 0.360371 6.22754 0.219727C6.36813 0.0792655 6.55907 4.34031e-05 6.75781 0Z" fill="#21262A"/>
  </g>
</svg>
