<svg width="24" height="24" viewBox="0 0 24 24" fill="none" xmlns="http://www.w3.org/2000/svg">
  <g transform="translate(3 2)">
    <path d="M9 0C9.55228 0 10 0.447715 10 1V19C10 19.5523 9.55228 20 9 20C8.44772 20 8 19.5523 8 19V1C8 0.447715 8.44772 0 9 0ZM5 3C5.55228 3 6 3.44772 6 4V16C6 16.5523 5.55228 17 5 17C4.44772 17 4 16.5523 4 16V4C4 3.44772 4.44772 3 5 3ZM13 5C13.5523 5 14 5.44772 14 6V14C14 14.5523 13.5523 15 13 15C12.4477 15 12 14.5523 12 14V6C12 5.44772 12.4477 5 13 5ZM17 7C17.5523 7 18 7.44772 18 8V12C18 12.5523 17.5523 13 17 13C16.4477 13 16 12.5523 16 12V8C16 7.44772 16.4477 7 17 7ZM1 8C1.55228 8 2 8.44772 2 9V11C2 11.5523 1.55228 12 1 12C0.447715 12 0 11.5523 0 11V9C0 8.44772 0.447715 8 1 8Z" fill="#393A3D"/>
  </g>
</svg>
