<svg width="12" height="9" viewBox="0 0 12.2629 8.73798" fill="none" xmlns="http://www.w3.org/2000/svg">
  <path d="M12.0189 0.243992C11.8627 0.0877666 11.6507 0 11.4297 0C11.2088 0 10.9969 0.0877666 10.8406 0.243992L4.35893 6.72565L1.41227 3.77982C1.2551 3.62807 1.04459 3.54407 0.826098 3.5459C0.607598 3.54782 0.39859 3.63548 0.244082 3.78998C0.0895732 3.94448 0.00193154 4.15348 3.15437e-05 4.37198C-0.00186846 4.59048 0.0821317 4.80098 0.233932 4.95815L3.76977 8.49398C3.92603 8.65023 4.13796 8.73798 4.35893 8.73798C4.57991 8.73798 4.79182 8.65023 4.94807 8.49398L12.0189 1.42233C12.1752 1.26605 12.2629 1.05413 12.2629 0.833158C12.2629 0.612192 12.1752 0.400267 12.0189 0.243992Z" fill="#FFFFFF"/>
</svg>
