<svg preserveAspectRatio="none" width="100%" height="100%" overflow="visible" style="display: block;" viewBox="0 0 17.0066 20.0059" fill="none" xmlns="http://www.w3.org/2000/svg">
<g id="Vector">
<path d="M8.49618 12.5059C7.70505 12.5059 6.93169 12.2713 6.2739 11.8317C5.6161 11.3922 5.10341 10.7675 4.80066 10.0366C4.49791 9.3057 4.41869 8.50143 4.57304 7.72551C4.72738 6.94959 5.10834 6.23685 5.66775 5.67744C6.22716 5.11803 6.93989 4.73707 7.71582 4.58273C8.49174 4.42839 9.29601 4.5076 10.0269 4.81035C10.7578 5.1131 11.3825 5.62579 11.8221 6.28359C12.2616 6.94139 12.4962 7.71475 12.4962 8.50587C12.4962 9.56674 12.0748 10.5842 11.3246 11.3343C10.5745 12.0844 9.55704 12.5059 8.49618 12.5059ZM8.49618 6.50587C8.10062 6.50587 7.71394 6.62317 7.38504 6.84293C7.05614 7.06269 6.79979 7.37505 6.64842 7.7405C6.49704 8.10596 6.45744 8.50809 6.53461 8.89605C6.61178 9.28401 6.80226 9.64038 7.08196 9.92008C7.36167 10.1998 7.71803 10.3903 8.106 10.4674C8.49396 10.5446 8.89609 10.505 9.26154 10.3536C9.627 10.2023 9.93935 9.94591 10.1591 9.61701C10.3789 9.28811 10.4962 8.90143 10.4962 8.50587C10.4962 7.97544 10.2855 7.46673 9.91039 7.09166C9.53532 6.71658 9.02661 6.50587 8.49618 6.50587Z" fill="var(--fill-0, #205EA3)"/>
<path d="M8.49618 20.0059C8.32336 20.0059 8.15348 19.9612 8.00311 19.876C7.85274 19.7908 7.72701 19.6681 7.63818 19.5199L5.87918 16.5859C4.45244 16.1234 3.17347 15.2917 2.17209 14.1752C1.17072 13.0586 0.482607 11.697 0.177611 10.2285C-0.127385 8.76007 -0.0384035 7.23704 0.435522 5.81408C0.909448 4.39112 1.75144 3.11889 2.87602 2.12655C4.00061 1.13421 5.36774 0.457095 6.83862 0.163947C8.3095 -0.129201 9.83175 -0.0279446 11.2508 0.457437C12.6699 0.942818 13.9353 1.79504 14.9186 2.92759C15.9018 4.06013 16.5679 5.43267 16.8492 6.90587C17.2478 8.94239 16.8834 11.0544 15.8255 12.8396C14.7675 14.6248 13.0899 15.9586 11.1122 16.5869L9.35418 19.5209C9.26523 19.6689 9.13944 19.7914 8.98908 19.8764C8.83871 19.9614 8.6689 20.006 8.49618 20.0059ZM8.51418 2.00587C6.93681 1.99828 5.41062 2.56516 4.22068 3.60063C3.03073 4.63609 2.25842 6.06931 2.04799 7.6326C1.83756 9.19588 2.2034 10.7823 3.07719 12.0956C3.95098 13.4088 5.27295 14.3591 6.79618 14.7689C7.0472 14.8367 7.26224 14.999 7.39618 15.2219L8.49618 17.0599L9.59618 15.2219C9.72984 14.999 9.94504 14.8368 10.1962 14.7699C11.6061 14.3856 12.8453 13.5374 13.7139 12.3623C14.5826 11.1872 15.0299 9.7536 14.9836 8.29301C14.9374 6.83243 14.4004 5.43003 13.4592 4.31217C12.518 3.19431 11.2275 2.42622 9.79618 2.13187C9.37379 2.0494 8.94454 2.00721 8.51418 2.00587Z" fill="var(--fill-0, #205EA3)"/>
</g>
</svg>
