<svg preserveAspectRatio="none" width="100%" height="100%" overflow="visible" style="display: block;" viewBox="0 0 16.6726 15.8973" fill="none" xmlns="http://www.w3.org/2000/svg">
<path id="Vector" d="M16.6306 5.99071C16.5827 5.84279 16.4942 5.71125 16.3754 5.61096C16.2565 5.51067 16.112 5.44564 15.9581 5.42321L11.2081 4.73321L9.08813 0.431546C9.01182 0.300266 8.90239 0.191317 8.77078 0.115587C8.63916 0.039857 8.48998 0 8.33813 0C8.18629 0 8.0371 0.039857 7.90549 0.115587C7.77387 0.191317 7.66444 0.300266 7.58813 0.431546L5.4673 4.73321L0.717298 5.42321C0.562627 5.44496 0.417182 5.50974 0.297551 5.61016C0.177921 5.71058 0.0889209 5.84261 0.0407029 5.99117C-0.00751511 6.13973 -0.0130101 6.29886 0.0248447 6.45039C0.0626995 6.60193 0.14238 6.73978 0.254798 6.84821L3.69063 10.1982L2.88147 14.9232C2.85554 15.0761 2.8728 15.2332 2.93131 15.3769C2.98982 15.5205 3.08726 15.645 3.21265 15.7363C3.33805 15.8275 3.48643 15.882 3.6411 15.8935C3.79577 15.9051 3.95058 15.8732 4.08813 15.8015L8.33813 13.569L12.5881 15.8015C12.7258 15.8739 12.8809 15.9063 13.036 15.8951C13.191 15.8839 13.3399 15.8296 13.4657 15.7382C13.5915 15.6468 13.6892 15.522 13.7478 15.378C13.8064 15.234 13.8236 15.0765 13.7973 14.9232L12.9865 10.194L16.4215 6.84821C16.5331 6.7392 16.6119 6.60103 16.6489 6.44943C16.6859 6.29783 16.6795 6.13889 16.6306 5.99071V5.99071Z" fill="var(--fill-0, #F9C741)"/>
</svg>
