<svg preserveAspectRatio="none" width="100%" height="100%" overflow="visible" style="display: block;" viewBox="0 0 14.4586 13.1139" fill="none" xmlns="http://www.w3.org/2000/svg">
<g id="elements">
<path id="Ellipse 2344" d="M3.48776 3.8669C3.29862 4.43328 3.19446 5.05239 3.19446 5.70099C3.19446 8.40216 5.00099 10.5919 7.22945 10.5919C9.45792 10.5919 11.2644 8.40216 11.2644 5.70099C11.2644 5.05239 11.1603 4.43328 10.9711 3.8669" stroke="var(--stroke-0, #00254A)" stroke-width="1.00875" stroke-linecap="round" stroke-linejoin="round"/>
<path id="Vector 8281" d="M8.91064 12.6094C8.91064 12.6094 8.45202 10.5919 7.2294 10.5919C6.00677 10.5919 5.54815 12.6094 5.54815 12.6094" stroke="var(--stroke-0, #00254A)" stroke-width="1.00875" stroke-linecap="round" stroke-linejoin="round"/>
<path id="Ellipse 2345" d="M11.6142 2.00383C11.8105 3.12467 10.9284 3.86688 10.9284 3.86688C10.9284 3.86688 9.85002 3.48826 9.65373 2.36742C9.45744 1.24659 10.3395 0.504382 10.3395 0.504382C10.3395 0.504382 11.4179 0.883002 11.6142 2.00383Z" stroke="var(--stroke-0, #00254A)" stroke-width="1.00875" stroke-linecap="round" stroke-linejoin="round"/>
<path id="Ellipse 2347" d="M13.3452 6.65048C12.4835 7.50244 11.3167 7.16226 11.3167 7.16226C11.3167 7.16226 11.0116 5.97013 11.8733 5.11817C12.735 4.26621 13.9018 4.60639 13.9018 4.60639C13.9018 4.60639 14.2069 5.79852 13.3452 6.65048Z" stroke="var(--stroke-0, #00254A)" stroke-width="1.00875" stroke-linecap="round" stroke-linejoin="round"/>
<path id="Ellipse 2349" d="M11.4215 10.7194C10.4127 10.3323 10.2557 9.24692 10.2557 9.24692C10.2557 9.24692 11.1074 8.5486 12.1162 8.93568C13.1249 9.32276 13.282 10.4082 13.282 10.4082C13.282 10.4082 12.4302 11.1065 11.4215 10.7194Z" stroke="var(--stroke-0, #00254A)" stroke-width="1.00875" stroke-linecap="round" stroke-linejoin="round"/>
<path id="Ellipse 2350" d="M3.03746 10.7193C4.04621 10.3323 4.20323 9.24685 4.20323 9.24685C4.20323 9.24685 3.35151 8.54853 2.34276 8.93561C1.33401 9.3227 1.17699 10.4081 1.17699 10.4081C1.17699 10.4081 2.02871 11.1064 3.03746 10.7193Z" stroke="var(--stroke-0, #00254A)" stroke-width="1.00875" stroke-linecap="round" stroke-linejoin="round"/>
<path id="Ellipse 2348" d="M1.11342 6.65048C1.97513 7.50244 3.14194 7.16226 3.14194 7.16226C3.14194 7.16226 3.44703 5.97013 2.58532 5.11817C1.72362 4.26621 0.556809 4.60639 0.556809 4.60639C0.556809 4.60639 0.251711 5.79852 1.11342 6.65048Z" stroke="var(--stroke-0, #00254A)" stroke-width="1.00875" stroke-linecap="round" stroke-linejoin="round"/>
<path id="Ellipse 2346" d="M2.8446 2.00383C2.64831 3.12467 3.53042 3.86688 3.53042 3.86688C3.53042 3.86688 4.60882 3.48826 4.80511 2.36742C5.00139 1.24659 4.11929 0.504382 4.11929 0.504382C4.11929 0.504382 3.04089 0.883002 2.8446 2.00383Z" stroke="var(--stroke-0, #00254A)" stroke-width="1.00875" stroke-linecap="round" stroke-linejoin="round"/>
</g>
</svg>
