<svg preserveAspectRatio="none" width="100%" height="100%" overflow="visible" style="display: block;" viewBox="0 0 19.168 19.168" fill="none" xmlns="http://www.w3.org/2000/svg">
<g id="Checkball">
<path id="Subtract" d="M9.58398 0C14.877 4.94785e-05 19.168 4.29098 19.168 9.58398C19.1679 14.8769 14.8769 19.1679 9.58398 19.168C4.29098 19.168 4.948e-05 14.877 0 9.58398C0 4.29095 4.29095 0 9.58398 0ZM14.8711 4.3125C11.8071 6.65912 9.26431 9.65818 7.4541 13.0977C6.35209 12.3031 5.29212 11.4558 4.27734 10.5576C3.90408 11.375 3.56949 12.2124 3.27344 13.0684C4.8919 14.4401 7.05597 16.0115 8.54004 16.8955C10.4653 11.9164 13.4694 8.66885 16.3438 6.40234C15.9747 5.6228 15.4747 4.91541 14.8711 4.3125Z" fill="var(--fill-0, black)"/>
</g>
</svg>
