<svg preserveAspectRatio="none" width="100%" height="100%" overflow="visible" style="display: block;" viewBox="0 0 95.3298 15.1862" fill="none" xmlns="http://www.w3.org/2000/svg">
<g id="Expert Assist">
<path id="Vector" d="M7.46426e-05 0.115867H7.76589V1.93754H2.08636V4.91784H7.46765V6.67298H2.08636V9.98443H8.06342V11.839H7.46426e-05V0.115867Z" fill="var(--fill-0, #1D1D1D)"/>
<path id="Vector_2" d="M12.3068 7.61634L9.44235 3.89078H11.8269L13.5491 6.35756L15.3207 3.89078H17.6058L14.7578 7.61634L18.0035 11.8383H15.5861L13.5162 8.94093L11.4299 11.8383H9.07902L12.3068 7.61634Z" fill="var(--fill-0, #1D1D1D)"/>
<path id="Vector_3" d="M20.7242 3.89078V5.00008H20.7735C21.1712 4.37069 22.0652 3.65905 23.5221 3.65905C25.7908 3.65905 27.38 5.48071 27.38 7.83163C27.38 10.1496 25.8895 12.0707 23.472 12.0707C22.3627 12.0707 21.3529 11.5736 20.8393 10.779H20.8064V15.1862H18.8196V3.89149H20.7242V3.89078ZM23.0758 5.28189C21.6189 5.28189 20.7413 6.62291 20.7413 7.86524C20.7413 9.10757 21.6189 10.415 23.0758 10.415C24.6157 10.415 25.3609 9.07396 25.3609 7.83163C25.3609 6.5893 24.6157 5.28189 23.0758 5.28189Z" fill="var(--fill-0, #1D1D1D)"/>
<path id="Vector_4" d="M36.4389 8.49392H30.3953C30.4783 9.61966 31.5046 10.4479 32.664 10.4479C33.6574 10.4479 34.3197 10.0502 34.7667 9.42155L36.0913 10.4815C35.3131 11.5415 34.1874 12.0707 32.6804 12.0707C30.2301 12.0707 28.4084 10.4979 28.4084 7.91458C28.4084 5.34839 30.2129 3.65905 32.6139 3.65905C34.8325 3.65905 36.4553 5.09951 36.4553 7.96395C36.4553 8.14633 36.4553 8.31225 36.4389 8.49392ZM34.4685 7.06993C34.4685 6.04359 33.8891 5.14957 32.5975 5.14957C31.4217 5.14957 30.4783 5.96063 30.3953 7.06993H34.4685Z" fill="var(--fill-0, #1D1D1D)"/>
<path id="Vector_5" d="M37.589 3.89078H39.4929V5.21536H39.5258C39.9563 4.30489 40.801 3.65905 41.8438 3.65905C41.9925 3.65905 42.1914 3.67551 42.3237 3.70841V5.53007C42.0591 5.46355 41.8931 5.44709 41.7107 5.44709C39.9227 5.44709 39.5751 7.00341 39.5751 7.58273V11.8383H37.5882V3.89078H37.589Z" fill="var(--fill-0, #1D1D1D)"/>
<path id="Vector_6" d="M42.9903 5.4807V3.89149H44.3814V1.58993H46.3353V3.89149H48.3222V5.4807H46.3353V9.17337C46.3353 9.88573 46.5005 10.3985 47.3781 10.3985C47.6427 10.3985 47.9911 10.3485 48.2228 10.2326L48.2893 11.7889C47.9417 11.9212 47.4117 12.0042 46.9647 12.0042C44.862 12.0042 44.3814 10.7125 44.3814 9.1891V5.47999H42.9903V5.4807Z" fill="var(--fill-0, #1D1D1D)"/>
<path id="Vector_7" d="M57.379 0.115867H59.1835L64.2336 11.839H61.8491L60.7562 9.15692H55.6732L54.6132 11.839H52.2788L57.379 0.115867ZM60.0281 7.36817L58.2237 2.59983L56.3856 7.36817H60.0281Z" fill="var(--fill-0, #1D1D1D)"/>
<path id="Vector_8" d="M69.7908 6.01069C69.4432 5.54723 68.8525 5.14957 68.1237 5.14957C67.4943 5.14957 66.9915 5.3813 66.9915 6.01069C66.9915 6.62363 67.4614 6.78883 68.5707 7.05346C69.7465 7.33526 71.0654 7.86452 71.0654 9.42155C71.0654 11.3591 69.5641 12.0707 67.8254 12.0707C66.6003 12.0707 65.325 11.6072 64.5633 10.7626L66.0145 9.53742C66.4451 10.1003 67.0473 10.5308 67.9084 10.5308C68.4877 10.5308 69.1836 10.2991 69.1836 9.58677C69.1836 8.92448 68.6422 8.72565 67.4335 8.44457C66.2577 8.16278 65.011 7.68287 65.011 6.19307C65.011 4.42148 66.6003 3.65977 68.1737 3.65977C69.3159 3.65977 70.4367 4.05744 71.0825 4.86849L69.7908 6.01069Z" fill="var(--fill-0, #1D1D1D)"/>
<path id="Vector_9" d="M77.0703 6.01069C76.7227 5.54723 76.0604 5.14957 75.3316 5.14957C74.7022 5.14957 74.0564 5.3813 74.0564 6.01069C74.0564 6.62363 74.6693 6.78883 75.7786 7.05346C76.9544 7.33526 78.3448 7.86452 78.3448 9.42155C78.3448 11.3591 76.7721 12.0707 75.0334 12.0707C73.8082 12.0707 72.533 11.6072 71.7713 10.7626L73.0794 9.53742C73.5099 10.1003 74.2552 10.5308 75.1163 10.5308C75.6956 10.5308 76.3916 10.2991 76.3916 9.58677C76.3916 8.92448 75.7786 8.72565 74.5706 8.44457C73.3948 8.16278 72.2197 7.68287 72.2197 6.19307C72.2197 4.42148 73.8089 3.65977 75.3824 3.65977C76.5246 3.65977 77.7169 4.05744 78.3627 4.86849L77.0703 6.01069Z" fill="var(--fill-0, #1D1D1D)"/>
<path id="Vector_10" d="M80.7194 1.18057e-05C81.4482 1.18057e-05 82.011 0.513531 82.011 1.19227C82.011 1.87101 81.4482 2.38455 80.7194 2.38455C79.9906 2.38455 79.4613 1.82166 79.4613 1.19227C79.4613 0.562881 79.9913 1.18057e-05 80.7194 1.18057e-05ZM79.7424 3.89078H81.7292V11.8383H79.7424V3.89078Z" fill="var(--fill-0, #1D1D1D)"/>
<path id="Vector_11" d="M88.0724 6.01069C87.7249 5.54723 87.0626 5.14957 86.3338 5.14957C85.7044 5.14957 85.0585 5.3813 85.0585 6.01069C85.0585 6.62363 85.6715 6.78883 86.7808 7.05346C87.9566 7.33526 89.347 7.86452 89.347 9.42155C89.347 11.3591 87.7742 12.0707 86.0355 12.0707C84.8103 12.0707 83.5351 11.6072 82.7734 10.7626L84.0816 9.53742C84.5121 10.1003 85.2574 10.5308 86.1185 10.5308C86.6978 10.5308 87.3937 10.2991 87.3937 9.58677C87.3937 8.92448 86.7808 8.72565 85.5728 8.44457C84.397 8.16278 83.2219 7.68287 83.2219 6.19307C83.2219 4.42148 84.8111 3.65977 86.3845 3.65977C87.5267 3.65977 88.719 4.05744 89.3648 4.86849L88.0724 6.01069Z" fill="var(--fill-0, #1D1D1D)"/>
<path id="Vector_12" d="M89.9978 5.4807V3.89149H91.3889V1.58993H93.3429V3.89149H95.3298V5.4807H93.3429V9.17337C93.3429 9.88573 93.5081 10.3985 94.3857 10.3985C94.6503 10.3985 94.9986 10.3485 95.2304 10.2326L95.2969 11.7889C94.9493 11.9212 94.4193 12.0042 93.9723 12.0042C91.8696 12.0042 91.3889 10.7125 91.3889 9.1891V5.47999H89.9978V5.4807Z" fill="var(--fill-0, #1D1D1D)"/>
</g>
</svg>
