<svg preserveAspectRatio="none" width="100%" height="100%" overflow="visible" style="display: block;" viewBox="0 0 19.0105 20.0105" fill="none" xmlns="http://www.w3.org/2000/svg">
<g id="Vector">
<path d="M18.717 18.3L16.171 15.754C16.8529 14.7217 17.1273 13.4729 16.941 12.2498C16.7546 11.0267 16.1207 9.91634 15.1623 9.13396C14.2038 8.35159 12.989 7.95294 11.7534 8.01527C10.5177 8.0776 9.3492 8.59649 8.47434 9.47134C7.59949 10.3462 7.0806 11.5147 7.01827 12.7504C6.95594 13.986 7.35459 15.2008 8.13696 16.1593C8.91934 17.1177 10.0297 17.7516 11.2528 17.938C12.4759 18.1243 13.7247 17.8499 14.757 17.168L17.3 19.717C17.4879 19.9049 17.7428 20.0105 18.0085 20.0105C18.2742 20.0105 18.5291 19.9049 18.717 19.717C18.9049 19.5291 19.0105 19.2742 19.0105 19.0085C19.0105 18.7428 18.9049 18.4879 18.717 18.3ZM9.878 15.119C9.45864 14.6994 9.1731 14.1648 9.0575 13.5829C8.9419 13.001 9.00143 12.3979 9.22855 11.8499C9.45566 11.3018 9.84018 10.8334 10.3335 10.5038C10.8268 10.1743 11.4067 9.99836 12 9.99836C12.5933 9.99836 13.1732 10.1743 13.6665 10.5038C14.1598 10.8334 14.5443 11.3018 14.7715 11.8499C14.9986 12.3979 15.0581 13.001 14.9425 13.5829C14.8269 14.1648 14.5414 14.6994 14.122 15.119C13.559 15.681 12.7961 15.9968 12.0006 15.9974C11.2051 15.9979 10.4418 15.6832 9.878 15.122V15.119Z" fill="var(--fill-0, #21612C)"/>
<path d="M7.862 18H3.138C2.83635 17.9995 2.5472 17.8794 2.3339 17.6661C2.12059 17.4528 2.00053 17.1637 2 16.862V3.138C2.00026 2.83626 2.12025 2.54696 2.3336 2.3336C2.54696 2.12025 2.83626 2.00026 3.138 2H12.862C13.1637 2.00026 13.453 2.12025 13.6664 2.3336C13.8798 2.54696 13.9997 2.83626 14 3.138V6C14 6.26522 14.1054 6.51957 14.2929 6.70711C14.4804 6.89464 14.7348 7 15 7C15.2652 7 15.5196 6.89464 15.7071 6.70711C15.8946 6.51957 16 6.26522 16 6V3.138C15.9989 2.30608 15.668 1.50853 15.0797 0.920268C14.4915 0.332008 13.6939 0.00105843 12.862 0H3.138C2.30608 0.00105843 1.50853 0.332008 0.920268 0.920268C0.332008 1.50853 0.00105843 2.30608 0 3.138V16.862C0.00105843 17.6939 0.332008 18.4915 0.920268 19.0797C1.50853 19.668 2.30608 19.9989 3.138 20H7.862C8.12722 20 8.38157 19.8946 8.56911 19.7071C8.75664 19.5196 8.862 19.2652 8.862 19C8.862 18.7348 8.75664 18.4804 8.56911 18.2929C8.38157 18.1054 8.12722 18 7.862 18Z" fill="var(--fill-0, #21612C)"/>
</g>
</svg>
