<svg preserveAspectRatio="none" width="100%" height="100%" overflow="visible" style="display: block;" viewBox="0 0 20.9991 21" fill="none" xmlns="http://www.w3.org/2000/svg">
<g id="Vector">
<path fill-rule="evenodd" clip-rule="evenodd" d="M10.2335 8.15234C10.5988 8.00107 11.0008 7.96101 11.3888 8.03809C11.7768 8.11529 12.1335 8.30624 12.4132 8.58594C12.6927 8.8655 12.8828 9.22174 12.9601 9.60938C13.0373 9.99738 12.9982 10.4001 12.8468 10.7656C12.6954 11.131 12.4383 11.4434 12.1095 11.6631C11.7808 11.8826 11.3944 11.9999 10.9991 12C10.8269 11.9978 10.6549 11.974 10.4884 11.9297L8.99913 13.4102V17C8.99993 17.1315 8.97461 17.2621 8.92491 17.3838C8.87517 17.5055 8.80168 17.6166 8.70909 17.71L5.70909 20.71C5.61571 20.8026 5.50467 20.876 5.38292 20.9258C5.2612 20.9754 5.13062 21.0008 4.99913 21C4.9215 20.9999 4.84373 20.9895 4.76866 20.9697C4.60341 20.9313 4.45024 20.852 4.32432 20.7383C4.1985 20.6247 4.10393 20.4806 4.04893 20.3203L3.5587 18.8496L2.70909 19.71C2.61613 19.8037 2.50477 19.8779 2.38292 19.9287C2.26125 19.9794 2.13091 20.0058 1.99913 20.0059C1.86715 20.0059 1.7362 19.9795 1.61436 19.9287C1.49258 19.8779 1.38209 19.8036 1.28917 19.71C1.19544 19.617 1.12021 19.5066 1.06944 19.3848C1.01868 19.2629 0.993269 19.132 0.993269 19C0.993269 18.868 1.01867 18.7371 1.06944 18.6152C1.12021 18.4934 1.19544 18.383 1.28917 18.29L2.14854 17.4404L0.678816 16.9502C0.518276 16.8952 0.374567 16.7997 0.260847 16.6738C0.14724 16.5479 0.0668041 16.3956 0.0284252 16.2305C-0.012051 16.0648 -0.00917059 15.891 0.0362377 15.7266C0.0817577 15.562 0.169197 15.4115 0.289167 15.29L3.28917 12.29C3.38257 12.1974 3.49358 12.124 3.61534 12.0742C3.73706 12.0246 3.86766 11.9992 3.99913 12H7.58897L9.06846 10.5098C9.02431 10.3434 9.00133 10.1721 8.99913 10C8.99913 9.6044 9.11624 9.21757 9.33604 8.88867C9.55573 8.55989 9.8681 8.30371 10.2335 8.15234ZM4.40831 14L2.89854 15.5596L4.36925 16.0498C4.51566 16.099 4.6487 16.1817 4.75792 16.291C4.86715 16.4003 4.94996 16.5332 4.99913 16.6797L5.43858 18.1504L6.99913 16.5898V14H4.40831Z" fill="var(--fill-0, #21612C)"/>
<path d="M10.9991 0C13.6513 0 16.195 1.05339 18.0704 2.92871C19.9458 4.80408 20.9991 7.34784 20.9991 10C20.9991 12.6522 19.9458 15.1959 18.0704 17.0713C16.195 18.9466 13.6513 20 10.9991 20C10.734 20 10.4796 19.8945 10.2921 19.707C10.1046 19.5195 9.99913 19.2652 9.99913 19C9.99913 18.7348 10.1046 18.4805 10.2921 18.293C10.4796 18.1055 10.734 18 10.9991 18C12.5814 18 14.1279 17.5303 15.4435 16.6514C16.7591 15.7723 17.7852 14.5233 18.3907 13.0615C18.9962 11.5998 19.1544 9.99115 18.8458 8.43945C18.5371 6.88758 17.7752 5.46159 16.6564 4.34277C15.5376 3.22399 14.1115 2.46199 12.5597 2.15332C11.008 1.84472 9.39936 2.00392 7.9376 2.60938C6.47592 3.2149 5.22675 4.24015 4.34776 5.55566C3.46872 6.87125 2.99913 8.41771 2.99913 10C2.99913 10.2652 2.89369 10.5195 2.70616 10.707C2.51863 10.8945 2.26431 11 1.99913 11C1.73395 11 1.47961 10.8945 1.2921 10.707C1.1046 10.5195 0.999128 10.2652 0.999128 10C0.999128 7.34787 2.05251 4.80408 3.92784 2.92871C4.85638 2.00018 5.95881 1.26329 7.17198 0.760742C8.38521 0.258213 9.68596 1.16148e-05 10.9991 0Z" fill="var(--fill-0, #21612C)"/>
<path d="M9.29112 4.28809C10.3286 3.98197 11.4298 3.96219 12.4776 4.23047C13.5255 4.49877 14.4817 5.04553 15.2442 5.8125C16.0068 6.57946 16.5483 7.53862 16.8107 8.58789C17.073 9.63708 17.0464 10.7379 16.7345 11.7734C16.4226 12.809 15.8363 13.7408 15.0382 14.4707C14.2399 15.2006 13.2587 15.7018 12.1993 15.9199H12.0001C11.7349 15.9465 11.4691 15.866 11.2628 15.6973C11.0567 15.5285 10.926 15.2847 10.8995 15.0195C10.873 14.7544 10.9534 14.4895 11.1222 14.2832C11.291 14.0771 11.5348 13.9465 11.7999 13.9199H11.8399C12.5477 13.7752 13.203 13.4413 13.7364 12.9541C14.2699 12.4668 14.6613 11.8434 14.8692 11.1514C15.0771 10.4594 15.0936 9.72405 14.9171 9.02344C14.7406 8.32293 14.3781 7.68275 13.8673 7.17188C13.3564 6.661 12.7163 6.29857 12.0157 6.12207C11.3151 5.9456 10.5797 5.96207 9.8878 6.16992C9.1958 6.37785 8.57242 6.76927 8.08507 7.30273C7.59786 7.8361 7.26395 8.49151 7.11925 9.19922C7.0662 9.46451 6.91067 9.69853 6.68565 9.84863C6.46074 9.99855 6.1851 10.0529 5.92003 10C5.65493 9.94702 5.42163 9.79036 5.27159 9.56543C5.12161 9.34051 5.06629 9.06502 5.11925 8.7998C5.34337 7.74177 5.84983 6.76385 6.58409 5.96973C7.31843 5.1756 8.25379 4.59421 9.29112 4.28809Z" fill="var(--fill-0, #21612C)"/>
</g>
</svg>
